<svg xmlns="http://www.w3.org/2000/svg" viewBox="0 0 500 500"><g id="freepik--background-complete--inject-104"><g><rect x="9.28" y="89.17" width="481.62" height="401.57" style="fill:#fafafa;"></rect><polygon points="167.7 491.74 9.1 380.24 9.45 378.25 168.05 489.75 167.7 491.74" style="fill:#e0e0e0;"></polygon><polygon points="331.12 491.74 330.77 489.75 489.37 378.25 489.72 380.24 331.12 491.74" style="fill:#e0e0e0;"></polygon><g><polygon points="244.64 426.31 9.11 272.22 9.44 270.21 244.97 424.3 244.64 426.31" style="fill:#e0e0e0;"></polygon><polygon points="244.97 426.32 244.65 424.3 489.38 270.21 489.7 272.23 244.97 426.32" style="fill:#e0e0e0;"></polygon></g><g><polygon points="244.64 299.05 9.11 144.96 9.44 142.95 244.97 297.04 244.64 299.05" style="fill:#e0e0e0;"></polygon><polygon points="244.97 299.05 244.65 297.04 489.38 142.95 489.7 144.96 244.97 299.05" style="fill:#e0e0e0;"></polygon></g><g><polygon points="244.64 185.54 100.13 91 100.46 88.99 244.97 183.53 244.64 185.54" style="fill:#e0e0e0;"></polygon><polygon points="244.97 185.54 244.65 183.53 394.63 89.1 394.95 91.11 244.97 185.54" style="fill:#e0e0e0;"></polygon></g></g><rect x="19.37" y="16.44" width="62.4" height="62.4" rx="10.57" ry="10.57" style="fill:#ebebeb;"></rect><rect x="86.43" y="16.44" width="62.4" height="62.4" rx="10.57" ry="10.57" style="fill:#f5f5f5;"></rect><rect x="153.48" y="16.44" width="62.4" height="62.4" rx="10.57" ry="10.57" style="fill:#ebebeb;"></rect><rect x="220.54" y="16.44" width="62.4" height="62.4" rx="10.57" ry="10.57" style="fill:#f5f5f5;"></rect><rect x="287.6" y="16.44" width="62.4" height="62.4" rx="10.57" ry="10.57" style="fill:#ebebeb;"></rect><rect x="354.65" y="16.44" width="62.4" height="62.4" rx="10.57" ry="10.57" style="fill:#f5f5f5;"></rect><rect x="421.71" y="16.44" width="62.4" height="62.4" rx="10.57" ry="10.57" style="fill:#ebebeb;"></rect></g><g id="freepik--Table--inject-104"><path d="M485.52,87.35c0,.14-105.45,.26-235.51,.26s-235.53-.12-235.53-.26,105.43-.26,235.53-.26,235.51,.12,235.51,.26Z" style="fill:#263238;"></path></g><g id="freepik--Coffee--inject-104"><g><g><ellipse cx="209.59" cy="169.37" rx="55.36" ry="19.35" style="fill:#e0e0e0;"></ellipse><ellipse cx="210.51" cy="172.65" rx="25.53" ry="8.34" style="opacity:.3;"></ellipse><path d="M260.52,169.37s-.05,.11-.16,.3c-.11,.19-.26,.5-.5,.84-.46,.72-1.22,1.69-2.3,2.7-1.09,1.01-2.51,2.04-4.22,3.03-1.71,.97-3.71,1.9-5.96,2.74-4.49,1.71-9.95,2.98-16,4.33-6.06,1.42-12.8,2.18-19.87,2.33-7.08,.15-13.83-.33-19.93-1.16-6.1-.84-11.57-2.06-16.1-3.49-4.53-1.41-8.12-3.07-10.49-4.57-.6-.36-1.11-.75-1.55-1.06-.43-.36-.8-.65-1.09-.9-.27-.27-.49-.48-.64-.63-.14-.14-.21-.22-.21-.22,0,0,.08,.06,.23,.19,.15,.14,.37,.34,.65,.6,.29,.25,.67,.52,1.1,.87,.45,.3,.96,.68,1.56,1.03,2.38,1.46,5.96,3.07,10.49,4.45,4.53,1.4,9.99,2.58,16.08,3.41,6.1,.82,12.83,1.28,19.9,1.13,7.07-.15,13.79-.9,19.84-2.3,6.06-1.33,11.51-2.57,15.99-4.24,2.24-.82,4.24-1.72,5.95-2.68,1.71-.96,3.13-1.97,4.22-2.96,1.09-.99,1.86-1.92,2.32-2.63,.25-.33,.4-.63,.52-.82,.11-.19,.18-.28,.18-.28Z" style="fill:#263238;"></path></g><g><g><path d="M154.32,111.39s-.42,64,54.33,65.3h.35c54.75-1.3,55.87-66.05,55.87-66.05l-110.55,.75Z" style="fill:#FF725E;"></path><path d="M156.27,128.32s.02,.1,.04,.3c.03,.2,.02,.49,.14,.86,.17,.75,.65,1.82,1.64,2.91,1.96,2.2,5.75,4.38,10.71,6.11,9.94,3.5,24.51,5.61,40.57,5.62,16.06-.01,30.64-2.12,40.58-5.62,4.96-1.73,8.75-3.91,10.71-6.11,.99-1.09,1.47-2.16,1.64-2.91,.12-.37,.12-.67,.14-.86,.02-.2,.04-.3,.04-.3,0,0,0,.1-.01,.3-.02,.2,0,.5-.12,.87-.16,.76-.63,1.85-1.62,2.96-1.96,2.24-5.76,4.46-10.72,6.21-9.96,3.56-24.55,5.7-40.64,5.71-16.08-.01-30.68-2.15-40.63-5.71-4.97-1.75-8.76-3.97-10.72-6.21-.99-1.11-1.46-2.2-1.62-2.96-.11-.38-.1-.68-.12-.88-.01-.2-.01-.3-.01-.3Z" style="fill:#fff;"></path><g style="opacity:.3;"><path d="M207.02,172.68c-7.99-1.44-13.81-2.35-23.56-8.32-6.53-4-11.3-9.71-15.94-15.8-4.59-6.03-7.5-13.65-11.23-20.25,3.99,19.06,16.03,47.51,52.35,48.37h.35c8.19-.19,15.17-1.82,21.14-4.42-7.26,.24-15.93,1.71-23.1,.41Z"></path></g></g><g><ellipse cx="209.59" cy="111.39" rx="55.27" ry="15.93" style="fill:#FF725E;"></ellipse><path d="M162.12,115.24c6.41-5.09,25.14-8.77,47.26-8.77s40.86,3.68,47.26,8.77c1.53-1.22,2.36-2.51,2.36-3.86,0-6.97-22.22-12.62-49.62-12.62s-49.62,5.65-49.62,12.62c0,1.34,.83,2.64,2.36,3.86Z" style="opacity:.3;"></path><path d="M264.86,111.39c-.06,.02,.09-.89-.63-2.34-.39-.7-.97-1.51-1.83-2.31-.86-.79-1.96-1.59-3.28-2.36-5.29-3.06-13.89-5.57-24.67-7.13-5.39-.78-11.35-1.33-17.76-1.55-6.41-.23-13.26-.17-20.45,.35-7.18,.52-14.72,1.47-22.34,3.31-1.91,.45-3.81,1-5.7,1.61-1.89,.61-3.78,1.32-5.61,2.17-1.82,.86-3.63,1.84-5.19,3.15-.79,.64-1.49,1.4-2.05,2.24-.55,.85-.93,1.83-.92,2.85,0,1.02,.37,2,.92,2.85,.56,.85,1.26,1.61,2.05,2.24,1.56,1.31,3.36,2.3,5.19,3.16,1.83,.85,3.71,1.56,5.61,2.17,1.9,.61,3.8,1.16,5.7,1.61,7.62,1.84,15.16,2.79,22.34,3.31,7.19,.52,14.05,.58,20.46,.35,6.41-.23,12.36-.77,17.76-1.55,10.78-1.55,19.38-4.07,24.67-7.13,1.31-.77,2.41-1.56,3.28-2.36,.86-.8,1.44-1.61,1.83-2.31,.71-1.45,.57-2.36,.63-2.34,0,0,0,.21-.04,.62-.04,.41-.19,1.01-.54,1.74-.38,.71-.96,1.54-1.82,2.34-.86,.8-1.96,1.61-3.28,2.39-5.3,3.09-13.9,5.64-24.69,7.22-5.4,.79-11.36,1.35-17.77,1.59-6.41,.24-13.28,.19-20.48-.32-7.19-.52-14.74-1.46-22.39-3.3-1.91-.46-3.82-1-5.72-1.61-1.9-.61-3.79-1.32-5.64-2.18-1.84-.86-3.65-1.86-5.24-3.19-.81-.65-1.53-1.43-2.1-2.3-.57-.88-.96-1.91-.96-2.99,0-1.08,.39-2.11,.97-2.99,.58-.88,1.3-1.65,2.1-2.3,1.59-1.34,3.41-2.33,5.24-3.19,1.84-.86,3.73-1.57,5.64-2.18,1.9-.61,3.81-1.16,5.72-1.61,7.64-1.84,15.19-2.78,22.38-3.3,7.2-.51,14.07-.57,20.48-.32,6.41,.24,12.37,.79,17.77,1.59,10.79,1.58,19.4,4.13,24.69,7.22,1.32,.78,2.42,1.58,3.28,2.39,.86,.81,1.44,1.64,1.82,2.34,.35,.73,.5,1.33,.54,1.74,.03,.41,.04,.62,.04,.62Z" style="fill:#263238;"></path></g><path d="M162.12,115.24c6.41,5.09,25.14,8.77,47.26,8.77s40.86-3.68,47.26-8.77c-6.41-5.09-25.14-8.77-47.26-8.77s-40.86,3.68-47.26,8.77Z" style="fill:#6f4439;"></path><g><path d="M210.37,121.92c-.29-.22-.64-.37-1.01-.41-.45-.09-1.09,.1-1.53,.26-.15,.05-.31,.14-.36,.29-.09,.26,.19,.51,.44,.62,.66,.29,1.41,.37,2.12,.21,.29-.06,.62-.23,.62-.53,0-.18-.14-.33-.28-.44Z" style="fill:#6f4439;"></path><path d="M233.29,119.45c-.5-.38-1.1-.63-1.72-.7-.77-.15-1.87,.17-2.61,.44-.25,.09-.52,.24-.62,.49-.16,.45,.32,.86,.76,1.06,1.13,.5,2.42,.63,3.62,.37,.49-.11,1.06-.4,1.05-.9,0-.31-.24-.56-.48-.75Z" style="fill:#6f4439;"></path><path d="M207.03,123c-.12-.09-.26-.15-.41-.17-.18-.04-.44,.04-.62,.1-.06,.02-.12,.06-.15,.12-.04,.11,.08,.21,.18,.25,.27,.12,.57,.15,.86,.09,.12-.03,.25-.09,.25-.21,0-.07-.06-.13-.12-.18Z" style="fill:#6f4439;"></path><path d="M228.39,120.93c-.12-.09-.26-.15-.41-.17-.18-.04-.44,.04-.62,.1-.06,.02-.12,.06-.15,.12-.04,.11,.08,.21,.18,.25,.27,.12,.57,.15,.86,.09,.12-.03,.25-.09,.25-.21,0-.07-.06-.13-.12-.18Z" style="fill:#6f4439;"></path><path d="M237.64,119.08c-.3-.19-.66-.31-1.04-.35-.47-.08-1.13,.08-1.58,.22-.15,.05-.32,.12-.37,.25-.1,.23,.19,.43,.46,.53,.68,.25,1.46,.31,2.19,.18,.3-.05,.64-.2,.63-.45,0-.15-.14-.28-.29-.38Z" style="fill:#6f4439;"></path><path d="M234.22,110.09s-.05,0-.15,0c-.11-.01-.26-.02-.44-.04l-1.71-.18c-.74-.09-1.65-.18-2.7-.27-1.05-.1-2.25-.22-3.58-.31-1.33-.1-2.78-.21-4.34-.29-1.56-.1-3.23-.15-4.99-.22-3.52-.1-7.39-.13-11.45-.03-4.06,.11-7.92,.34-11.43,.61-3.51,.29-6.66,.61-9.3,.95-1.32,.15-2.51,.32-3.56,.46-1.05,.14-1.95,.27-2.69,.38-.72,.11-1.29,.19-1.7,.25-.18,.02-.33,.04-.44,.06-.1,.01-.15,.02-.15,.01,0,0,.05-.02,.15-.04l.44-.08c.4-.07,.97-.17,1.69-.29,.73-.13,1.63-.28,2.68-.43,1.05-.15,2.24-.34,3.56-.5,2.64-.36,5.8-.7,9.31-1,3.51-.28,7.38-.52,11.45-.63,4.06-.1,7.94-.06,11.46,.05,1.76,.08,3.43,.13,5,.24,1.56,.09,3.02,.21,4.35,.32,1.33,.1,2.53,.24,3.58,.35,1.05,.1,1.96,.22,2.7,.32,.72,.1,1.29,.17,1.7,.23,.18,.03,.33,.05,.44,.07,.1,.02,.15,.03,.15,.03Z" style="fill:#fff;"></path></g><g><path d="M263.43,128.44c.25-.09,.5-.18,.76-.25l-1.08,.29c.7-.19,1.42-.28,2.15-.29-.39,0-.77,0-1.16,0,.86,0,1.71,.12,2.54,.34-.37-.1-.74-.2-1.12-.31,.94,.26,1.83,.65,2.68,1.14-.32-.19-.64-.38-.96-.57,.85,.51,1.62,1.11,2.32,1.81-.26-.26-.52-.52-.78-.79,.64,.65,1.2,1.38,1.66,2.16-.18-.32-.37-.64-.55-.96,.55,.96,.96,1.97,1.26,3.04-.1-.36-.2-.72-.29-1.08,.36,1.32,.52,2.69,.53,4.06v-1.16c0,1.7-.25,3.38-.7,5.02,.1-.37,.2-.74,.31-1.12-.52,1.87-1.3,3.66-2.27,5.33,.19-.32,.38-.64,.57-.96-1.06,1.79-2.34,3.44-3.83,4.91,.26-.26,.52-.52,.79-.78-1.41,1.38-2.97,2.58-4.68,3.57,.32-.18,.64-.37,.96-.55-1.71,.98-3.54,1.74-5.44,2.26,.36-.1,.72-.2,1.08-.29-2.04,.55-4.14,.84-6.25,.84,.39,0,.77,0,1.16,0-1.79,0-3.56-.2-5.3-.61-1.02-.24-2.39,.24-3.2,.85-.84,.64-1.56,1.79-1.66,2.86-.1,1.11,.11,2.31,.85,3.2,.26,.26,.52,.52,.78,.79,.62,.48,1.31,.77,2.08,.87,2.53,.59,5.15,.71,7.74,.57,2.55-.14,5.09-.72,7.5-1.55,4.67-1.61,8.83-4.65,11.98-8.42,1.54-1.84,2.83-3.94,3.85-6.12,.45-.97,.83-1.96,1.13-2.98,.4-1.35,.76-2.71,.95-4.11,.19-1.39,.21-2.8,.15-4.2-.04-1.04-.18-2.08-.43-3.1-.65-2.6-1.66-5.13-3.47-7.16-.84-.94-1.75-1.84-2.79-2.56-1.04-.72-2.18-1.39-3.37-1.84-1.17-.44-2.43-.79-3.68-.91-.81-.08-1.63-.07-2.44-.04-.44,.02-.89,.07-1.32,.16-.79,.16-1.57,.38-2.32,.66-.99,.37-1.9,1.33-2.31,2.29-.42,.99-.47,2.37-.01,3.36,.47,.99,1.24,1.92,2.29,2.31,1.11,.42,2.23,.43,3.36,.01h0Z" style="fill:#FF725E;"></path><path d="M262.03,128.79s-.19,.08-.56,.13c-.37,.05-.92,.08-1.58-.05-.66-.13-1.45-.46-2.05-1.15-.3-.34-.55-.76-.67-1.25-.12-.48-.13-1-.06-1.51,.16-1.02,.47-1.95,.9-2.73,.43-.78,1.01-1.38,1.59-1.73,.58-.36,1.13-.48,1.5-.51,.38-.02,.58,.03,.58,.04,0,.02-.21,0-.57,.06-.36,.06-.87,.2-1.41,.56-.54,.35-1.08,.93-1.48,1.69-.4,.76-.71,1.68-.85,2.65-.07,.49-.06,.97,.05,1.41,.11,.44,.33,.83,.61,1.15,.56,.64,1.29,.98,1.91,1.12,.63,.15,1.17,.14,1.53,.12,.37-.02,.57-.05,.57-.03Z" style="fill:#263238;"></path><path d="M253.81,154.1s-.05,.04-.17,.1c-.11,.06-.28,.12-.51,.19-.46,.13-1.16,.19-2.01,.08-.85-.09-1.82-.38-2.9-.59-.54-.09-1.12-.16-1.71-.13-.59,.03-1.2,.15-1.73,.47-.53,.31-.92,.79-1.15,1.33-.24,.54-.34,1.11-.39,1.65-.1,1.09-.02,2.1,.29,2.87,.3,.77,.79,1.27,1.17,1.52,.38,.26,.64,.32,.63,.34,0,0-.07,0-.19-.03-.12-.04-.29-.1-.5-.23-.41-.24-.95-.74-1.28-1.54-.34-.8-.44-1.84-.36-2.96,.05-.56,.14-1.16,.39-1.73,.24-.58,.67-1.12,1.26-1.45,.58-.34,1.24-.47,1.85-.5,.62-.03,1.21,.05,1.76,.15,1.1,.22,2.05,.52,2.88,.64,.82,.13,1.5,.1,1.96,0,.46-.09,.69-.21,.7-.18Z" style="fill:#263238;"></path></g></g></g></g><g id="freepik--Plate--inject-104"><g><ellipse cx="275.6" cy="373.61" rx="159.02" ry="78.11" style="fill:#e0e0e0;"></ellipse><path d="M420.2,381.63s-.09,.27-.28,.79l-.87,2.3c-.34,1.03-.96,2.22-1.66,3.63-.64,1.45-1.64,2.98-2.7,4.74-2.26,3.43-5.36,7.42-9.63,11.42-4.25,4-9.62,8-15.96,11.7-12.67,7.51-29.27,13.48-48.01,18.44-9.4,2.41-19.39,4.47-29.85,5.97-10.45,1.51-21.38,2.38-32.57,2.63-22.41,.46-43.78-1.83-62.74-6.01-18.98-4.13-35.48-10.5-48.22-17.8-.8-.45-1.6-.88-2.37-1.34-.76-.48-1.51-.95-2.25-1.41-1.47-.94-2.95-1.79-4.28-2.78-1.35-.95-2.67-1.88-3.94-2.78-1.22-.97-2.41-1.9-3.55-2.81-.57-.46-1.14-.89-1.68-1.34l-1.54-1.38c-1.01-.91-1.98-1.78-2.91-2.61-1.77-1.76-3.36-3.4-4.79-4.88-1.33-1.56-2.52-2.94-3.55-4.15-1.03-1.2-1.76-2.33-2.42-3.18l-1.45-1.98c-.32-.45-.48-.69-.48-.69,0,0,.18,.22,.52,.65,.34,.45,.84,1.1,1.49,1.95,.67,.84,1.42,1.96,2.46,3.14,1.04,1.19,2.23,2.56,3.58,4.11,1.43,1.46,3.03,3.09,4.81,4.83,.93,.83,1.9,1.69,2.92,2.59,.51,.45,1.02,.91,1.55,1.37,.54,.45,1.11,.88,1.68,1.33,1.14,.9,2.33,1.83,3.55,2.78,1.27,.89,2.59,1.81,3.94,2.75,1.33,.98,2.81,1.82,4.28,2.76,.74,.46,1.49,.93,2.25,1.4,.77,.45,1.57,.88,2.37,1.33,25.42,14.69,66.04,24.49,110.76,23.6,11.17-.24,22.08-1.11,32.51-2.61,10.44-1.5,20.41-3.54,29.8-5.93,18.72-4.93,35.3-10.85,47.94-18.29,6.34-3.67,11.7-7.62,15.95-11.59,4.27-3.96,7.39-7.92,9.66-11.32,1.07-1.74,2.08-3.26,2.73-4.7,.71-1.41,1.35-2.58,1.7-3.6,.4-.99,.71-1.75,.92-2.28,.21-.51,.33-.77,.33-.77Z" style="fill:#263238;"></path></g></g><g id="freepik--Strawberries--inject-104"><g><path d="M168.72,371.36c-2.7-1.36-5.74-2.61-8.67-1.86,.68,2.71,2.33,5.17,4.58,6.82-2.87,.41-5.62,1.68-7.79,3.59-.19,.16-.38,.35-.44,.59-.09,.38,.19,.77,.54,.94,.35,.17,.76,.16,1.15,.15,2.29-.06,4.57-.23,6.85-.52l7.76-8.87c.5-2.42,.23-4.99-.77-7.24-1.63,1.78-2.75,4.01-3.21,6.38Z" style="fill:#455a64;"></path><g style="opacity:.3;"><path d="M168.72,371.36c-2.7-1.36-5.74-2.61-8.67-1.86,.68,2.71,2.33,5.17,4.58,6.82-2.87,.41-5.62,1.68-7.79,3.59-.19,.16-.38,.35-.44,.59-.09,.38,.19,.77,.54,.94,.35,.17,.76,.16,1.15,.15,2.29-.06,4.57-.23,6.85-.52l7.76-8.87c.5-2.42,.23-4.99-.77-7.24-1.63,1.78-2.75,4.01-3.21,6.38Z"></path></g><path d="M179.31,368.21c-3.15,1.08-5.95,2.96-8.71,4.82-5.05,4.14-9.24,9.21-10.4,13.64-.6,2.31-.47,4.84,.36,7.08,.85,2.29,2.54,4.17,4.28,5.88,2.84,2.79,6.04,5.34,9.79,6.67,5.25,1.85,10.54,2.6,15.9,1.1,3.32-.93,6.4-3.03,8.17-5.99,1.26-2.11,2.4-5.52,2.3-7.98-.27-6.84-2.42-13.6-6.16-19.33-1.5-2.31-3.34-4.51-5.82-5.72-2.99-1.45-6.58-1.24-9.72-.16Z" style="fill:#FF725E;"></path><g style="opacity:.1;"><path d="M179.31,368.21c-3.15,1.08-5.95,2.96-8.71,4.82-5.05,4.14-9.24,9.21-10.4,13.64-.6,2.31-.47,4.84,.36,7.08,.85,2.29,2.54,4.17,4.28,5.88,2.84,2.79,6.04,5.34,9.79,6.67,5.25,1.85,10.54,2.6,15.9,1.1,3.32-.93,6.4-3.03,8.17-5.99,1.26-2.11,2.4-5.52,2.3-7.98-.27-6.84-2.42-13.6-6.16-19.33-1.5-2.31-3.34-4.51-5.82-5.72-2.99-1.45-6.58-1.24-9.72-.16Z"></path></g><path d="M178.34,397.22c-.05,.3-.9,.33-1.71-.14-.82-.45-1.24-1.19-1.01-1.39,.22-.19,.82,.07,1.53,.46,.7,.4,1.24,.78,1.19,1.07Z" style="fill:#fff;"></path><path d="M182.94,382.85c-.05,.3-.9,.33-1.71-.14-.82-.45-1.24-1.19-1.01-1.39,.22-.19,.82,.07,1.53,.46,.7,.4,1.24,.78,1.19,1.07Z" style="fill:#fff;"></path><path d="M188.04,375.77c-.14,.26-.96,.01-1.57-.7-.63-.69-.78-1.53-.5-1.64,.27-.11,.75,.34,1.29,.94,.53,.61,.91,1.15,.77,1.4Z" style="fill:#fff;"></path><path d="M188.65,392.22c-.05,.3-.9,.33-1.71-.14-.82-.45-1.24-1.19-1.01-1.39,.22-.19,.82,.07,1.53,.46,.7,.41,1.24,.78,1.19,1.07Z" style="fill:#fff;"></path><path d="M185.93,404.06c-.05,.3-.9,.33-1.71-.14-.82-.45-1.24-1.19-1.01-1.39,.22-.19,.82,.07,1.53,.46,.7,.4,1.24,.78,1.19,1.07Z" style="fill:#fff;"></path><path d="M172.81,384.66c-.05,.3-.9,.33-1.71-.14-.82-.45-1.24-1.19-1.01-1.39,.22-.19,.82,.07,1.53,.46,.7,.4,1.24,.78,1.19,1.07Z" style="fill:#fff;"></path><path d="M195.88,385.04c-.14,.27-.96,.03-1.58-.66-.64-.68-.81-1.51-.53-1.63,.27-.12,.76,.32,1.31,.91,.54,.6,.94,1.13,.8,1.38Z" style="fill:#fff;"></path><path d="M197.13,397.55c-.14,.27-.96,.03-1.58-.66-.64-.68-.81-1.51-.53-1.63,.27-.12,.76,.32,1.31,.91,.54,.6,.94,1.13,.8,1.38Z" style="fill:#fff;"></path><path d="M169.61,398.98c-.05,.3-.9,.33-1.71-.14-.82-.45-1.24-1.19-1.01-1.39,.22-.19,.82,.07,1.53,.46,.7,.41,1.24,.78,1.19,1.07Z" style="fill:#fff;"></path><g style="opacity:.4;"><path d="M164.61,386.5c-.99,.43-1.66,1.54-1.51,2.6l-.08,.28c.1,1.25,.77,2.48,1.88,3.07s2.61,.42,3.43-.52c.51-.59,.71-1.39,.69-2.16-.03-1.08-.51-2.15-1.36-2.82-.85-.67-2.06-.88-3.04-.45Z" style="fill:#fff;"></path></g></g><g><path d="M224.35,378.81c1.36-2.7,2.61-5.74,1.86-8.67-2.71,.68-5.17,2.33-6.82,4.58-.41-2.87-1.68-5.62-3.59-7.79-.16-.19-.35-.38-.59-.44-.38-.09-.77,.19-.94,.54-.17,.35-.16,.76-.15,1.15,.06,2.29,.23,4.57,.52,6.85l8.86,7.76c2.42,.5,4.99,.23,7.24-.77-1.78-1.63-4.01-2.75-6.38-3.21Z" style="fill:#455a64;"></path><g style="opacity:.3;"><path d="M224.35,378.81c1.36-2.7,2.61-5.74,1.86-8.67-2.71,.68-5.17,2.33-6.82,4.58-.41-2.87-1.68-5.62-3.59-7.79-.16-.19-.35-.38-.59-.44-.38-.09-.77,.19-.94,.54-.17,.35-.16,.76-.15,1.15,.06,2.29,.23,4.57,.52,6.85l8.86,7.76c2.42,.5,4.99,.23,7.24-.77-1.78-1.63-4.01-2.75-6.38-3.21Z"></path></g><path d="M227.5,389.4c-1.08-3.15-2.96-5.95-4.82-8.71-4.14-5.05-9.21-9.24-13.64-10.4-2.31-.61-4.84-.47-7.08,.36-2.29,.85-4.17,2.54-5.88,4.28-2.79,2.84-5.34,6.04-6.67,9.79-1.85,5.25-2.6,10.54-1.1,15.9,.93,3.32,3.03,6.4,5.99,8.17,2.11,1.26,5.52,2.4,7.98,2.3,6.84-.27,13.6-2.42,19.33-6.16,2.31-1.5,4.51-3.34,5.72-5.82,1.45-2.99,1.24-6.58,.16-9.72Z" style="fill:#FF725E;"></path><g style="opacity:.3;"><path d="M227.5,389.4c-1.08-3.15-2.96-5.95-4.82-8.71-4.14-5.05-9.21-9.24-13.64-10.4-2.31-.61-4.84-.47-7.08,.36-2.29,.85-4.17,2.54-5.88,4.28-2.79,2.84-5.34,6.04-6.67,9.79-1.85,5.25-2.6,10.54-1.1,15.9,.93,3.32,3.03,6.4,5.99,8.17,2.11,1.26,5.52,2.4,7.98,2.3,6.84-.27,13.6-2.42,19.33-6.16,2.31-1.5,4.51-3.34,5.72-5.82,1.45-2.99,1.24-6.58,.16-9.72Z"></path></g><path d="M198.49,388.43c-.3-.05-.33-.9,.14-1.71,.45-.82,1.19-1.24,1.39-1.01,.19,.22-.07,.82-.46,1.53-.4,.7-.78,1.24-1.07,1.19Z" style="fill:#fff;"></path><path d="M212.86,393.02c-.3-.05-.33-.9,.14-1.71,.45-.82,1.19-1.24,1.39-1.01,.19,.22-.07,.82-.46,1.53-.4,.7-.78,1.24-1.07,1.19Z" style="fill:#fff;"></path><path d="M219.94,398.13c-.26-.14-.01-.96,.7-1.57,.69-.63,1.53-.78,1.64-.5,.11,.27-.34,.75-.94,1.29-.61,.53-1.15,.91-1.4,.77Z" style="fill:#fff;"></path><path d="M203.49,398.73c-.3-.05-.33-.9,.14-1.71,.45-.82,1.19-1.24,1.39-1.01,.19,.22-.07,.82-.46,1.53-.4,.7-.78,1.24-1.07,1.19Z" style="fill:#fff;"></path><path d="M191.65,396.01c-.3-.05-.33-.9,.14-1.71,.45-.82,1.19-1.24,1.39-1.01,.19,.22-.07,.82-.46,1.53-.4,.7-.78,1.24-1.07,1.19Z" style="fill:#fff;"></path><path d="M211.05,382.89c-.3-.05-.33-.9,.14-1.71,.45-.82,1.19-1.24,1.39-1.01,.19,.22-.07,.82-.46,1.53-.4,.7-.78,1.24-1.07,1.19Z" style="fill:#fff;"></path><path d="M210.66,405.97c-.27-.14-.03-.96,.66-1.58,.68-.64,1.51-.81,1.63-.53,.12,.27-.32,.76-.91,1.31-.6,.54-1.13,.94-1.38,.8Z" style="fill:#fff;"></path><path d="M198.16,407.22c-.27-.14-.03-.96,.66-1.58,.68-.64,1.51-.81,1.63-.53,.12,.27-.32,.76-.91,1.31-.6,.54-1.13,.94-1.38,.8Z" style="fill:#fff;"></path><path d="M196.72,379.7c-.3-.05-.33-.9,.14-1.71,.45-.82,1.19-1.24,1.39-1.01,.19,.22-.07,.82-.46,1.53-.4,.7-.78,1.24-1.07,1.19Z" style="fill:#fff;"></path><g style="opacity:.4;"><path d="M209.21,374.7c-.43-.99-1.54-1.66-2.6-1.51l-.28-.08c-1.25,.1-2.48,.77-3.07,1.88-.59,1.1-.42,2.61,.52,3.43,.59,.51,1.39,.71,2.16,.69,1.08-.03,2.15-.51,2.82-1.36,.67-.85,.88-2.06,.45-3.04Z" style="fill:#fff;"></path></g></g></g><g id="freepik--Croissants--inject-104"><g><g><path d="M220.28,323.71c-3.77,2.4-6.75,5.91-8.34,10.09-1.29,3.39-1.73,7.24,.92,10.05,5.88,6.25,48.7,4.96,48.7,4.96,0,0,2,4.23,14.61,10.75,15.84,8.19,16.01,22.34,25.82,26.37,2.73,1.12,2.94,.18,2.94,.18,0,0,4.41,8.64,3.12,16.72-1.29,8.09-8.64,21.5-6.8,26.65,1.84,5.15,7.9,10.66,22.24,5.15,14.33-5.51,31.42-20.03,38.41-30.51,6.98-10.47,7.53-16.72,7.53-16.72,0,0,2.21,3.58,7.35-5.84,5.15-9.42,6.8-30.18,0-35.33,0,0,1.1-4.23,.37-10.84-.63-5.66-22.97-46.86-68.36-30.69,0,0-11.21-3.68-21.5,1.29,0,0-48.44,4.67-67.01,17.71h0Z" style="fill:#FF725E;"></path><path d="M287.88,305.73s-.73,.26-2.04,.72c-1.31,.46-3.17,1.24-5.32,2.49-2.15,1.24-4.54,3.01-6.9,5.29-2.35,2.29-4.64,5.1-6.69,8.29-4.11,6.4-5.6,13.34-5.77,18.27-.1,2.48,.02,4.5,.18,5.88,.15,1.38,.27,2.15,.22,2.16-.02,0-.07-.18-.14-.54-.07-.36-.2-.89-.28-1.59-.21-1.38-.4-3.41-.34-5.92,.07-4.98,1.52-12.04,5.69-18.54,2.07-3.22,4.4-6.06,6.8-8.35,2.4-2.29,4.85-4.06,7.05-5.26,2.2-1.22,4.1-1.96,5.44-2.36,.66-.23,1.2-.33,1.56-.42,.36-.09,.55-.12,.55-.1Z" style="fill:#263238;"></path><g style="opacity:.4;"><path d="M370.85,378.13c-2.81-5.69-7.57-10.5-13.21-13.49-7.14-3.78-15.44-4.87-23.52-3.99-2.08,.23-4.16,.58-6.19,1.06-6.21,1.47-12.23,4.05-17.16,8.11-4.86,4-8.54,9.24-9.83,15.4,.15,.28,.73,.64,.97,.73,2.82,1.12,3.02,.17,3.02,.17,0,0,1.31-5.76,8.79-12.84,2.01-1.9,4.63-3.49,7.68-5.18,4.33-2.39,9.88-3.95,16.99-3.87,.24,0,.48-.03,.73-.04,0,0,11.61,1.09,20.63,8.37,4.25,3.43,7.86,8.54,9.68,14.84,.41,.43,1.39,1.72,4.12-1.06-.37-2.82-1.44-5.66-2.7-8.22Zm-66.3,7.81l.03,.07-.03-.07Z"></path></g><g style="opacity:.3;"><path d="M281.3,306.68s-17.1,7.08-21.83,27.57c0,0-1.21,7.4-4,8.61-2.79,1.21-24.84,5.29-24.84,5.29h0c14.03,1.17,30.93,.67,30.93,.67h0s-3.2-14.53,5.16-26.46c6.28-8.97,15.07-14.16,19.05-16.19-1.03,.11-2.55,.29-4.46,.53Z"></path></g><g style="opacity:.2;"><path d="M304.55,386.09l.38,.02s4.41,8.64,3.12,16.72c-.79,4.99-3.9,12.01-5.72,17.86,2.43-2.52,4.23-5.87,5.73-9.09,2.34-4.97,4.52-10.13,5.07-15.6,.55-5.47-1.41-12.01-5.27-15.92-1.45,1.86-2.57,3.86-3.32,5.99Z"></path></g><g style="opacity:.4;"><path d="M377.1,344.51c.19-1.8,.37-5.9,.05-9.11-4.77-4.15-10.89-7.9-16.78-10.23-9.8-3.87-20.7-4.9-31.05-2.92-12.45,2.38-23.75,8.95-33.73,16.76-2.36,1.85-4.7,3.8-7.45,4.98-2.75,1.19-6.05,1.51-8.69,.09,0,0-.98,5.52,6.93,4.28,7.92-1.24,16.52-9.81,23.72-13.79,8.35-4.61,16.8-6.88,25.92-7.44,9.12-.56,23.13,3.65,32.92,9.64,3.51,2.15,6.5,6.01,8.17,7.72Z"></path></g><path d="M376.93,343.83s-.09-.11-.26-.33c-.17-.24-.41-.58-.71-1-.7-.82-1.71-2.05-3.31-3.34-3.12-2.65-8.28-5.71-15.17-8.22-3.43-1.26-7.3-2.39-11.52-3.2-2.12-.36-4.33-.63-6.61-.72-2.29-.08-4.64-.02-7.05,.2-4.8,.5-9.79,1.67-14.62,3.74-4.86,2.03-9.38,5.12-13.94,8.36-4.57,3.22-9.14,6.36-14.14,8.24-1.25,.44-2.49,.91-3.81,1.11-1.3,.21-2.69,.22-3.92-.34-1.25-.54-2.14-1.68-2.52-2.91-.4-1.23-.43-2.51-.36-3.74,.48-4.88,1.82-9.37,3.65-13.3,1.82-3.94,4.09-7.32,6.46-10.14,2.36-2.84,4.88-5.05,7.2-6.82,2.31-1.8,4.53-3.02,6.34-3.99,1.85-.89,3.31-1.54,4.35-1.87,.49-.17,.88-.31,1.16-.41,.26-.09,.4-.13,.4-.12,0,0-.13,.07-.38,.17-.28,.11-.66,.26-1.14,.46-1.02,.36-2.46,1.04-4.29,1.95-1.79,.99-3.98,2.23-6.25,4.04-2.29,1.78-4.78,4-7.1,6.83-2.33,2.81-4.56,6.18-6.35,10.08-1.8,3.89-3.11,8.37-3.57,13.15-.07,1.19-.03,2.41,.34,3.55,.36,1.13,1.15,2.13,2.26,2.61,1.1,.5,2.4,.5,3.64,.29,1.26-.19,2.48-.65,3.71-1.09,4.92-1.86,9.46-4.98,14.02-8.19,4.56-3.23,9.13-6.35,14.04-8.4,4.89-2.08,9.93-3.25,14.77-3.74,2.43-.22,4.81-.28,7.12-.18,2.31,.1,4.54,.38,6.67,.76,4.26,.83,8.13,1.99,11.57,3.27,6.9,2.56,12.07,5.69,15.17,8.41,1.58,1.33,2.59,2.59,3.26,3.43,.28,.44,.51,.78,.67,1.03,.15,.23,.22,.36,.21,.36Z" style="fill:#263238;"></path><path d="M369.43,387.4s-.12-.27-.3-.8c-.09-.28-.2-.6-.33-.97-.12-.39-.26-.83-.5-1.31-.76-1.96-2.22-4.67-4.64-7.55-1.19-1.45-2.69-2.87-4.38-4.29-1.75-1.34-3.67-2.73-5.89-3.84-.54-.3-1.1-.59-1.69-.84-.58-.26-1.16-.53-1.76-.78-1.22-.44-2.46-.93-3.77-1.26-2.59-.72-5.37-1.24-8.23-1.27-2.86-.06-5.65,.25-8.29,.84-2.63,.62-5.08,1.53-7.34,2.57-4.47,2.17-8.08,4.92-10.68,7.64-2.61,2.71-4.35,5.24-5.37,7.08-.57,.89-.87,1.66-1.14,2.14-.26,.49-.4,.75-.42,.74-.02,0,.09-.28,.32-.79,.25-.5,.52-1.28,1.06-2.19,.97-1.88,2.68-4.47,5.28-7.24,2.59-2.78,6.22-5.6,10.74-7.81,2.28-1.06,4.76-1.99,7.43-2.63,2.67-.6,5.51-.92,8.42-.86,2.91,.04,5.72,.56,8.35,1.3,1.33,.34,2.58,.84,3.81,1.29,.61,.25,1.19,.54,1.78,.8,.59,.25,1.16,.54,1.71,.85,2.25,1.14,4.18,2.57,5.94,3.93,1.69,1.46,3.2,2.91,4.39,4.39,2.41,2.94,3.83,5.72,4.54,7.71,.22,.48,.35,.94,.45,1.33,.11,.38,.2,.71,.28,.99,.15,.54,.22,.82,.2,.83Z" style="fill:#263238;"></path><g style="opacity:.2;"><path d="M359.78,372.65c-5.53-4.94-12.92-7.89-20.31-8.51,5.46,7.08,7.47,16.56,5.96,25.37-1.51,8.81-6.38,16.9-13.05,22.85-6.67,5.95-15.05,9.83-23.79,11.71-1.93,.41-3.9,.74-5.67,1.61-.7,.34-1.36,.78-1.93,1.31-.05,.96,.03,1.81,.28,2.5,1.84,5.15,7.9,10.66,22.24,5.15,14.33-5.51,31.42-20.03,38.41-30.51,5.85-8.78,7.26-15.07,7.53-16.72-1.07-6.48-5.12-10.7-9.65-14.75Z"></path></g><g style="opacity:.2;"><path d="M376.78,346.24s.15,.83,.32-1.73c-10.63-14.93-37.76-17.71-37.76-17.71,0,0,11.58,7.8,12.76,20.55,.76,8.24-9.54,11.83-16.93,13.34,27.78-2.27,36.71,17.73,39.01,24.94,.77-.96,1.63-2.28,2.6-4.05,5.15-9.42,6.8-30.18,0-35.33Z"></path></g></g><g style="opacity:.2;"><path d="M319.26,313.21c-1.27-1.48-2.63-2.93-4.34-3.87-1.7-.95-3.82-1.33-5.62-.57l.27,.04c-9.11,4.38-17.21,10.86-23.47,18.8-1.59,2.01-3.11,4.75-1.85,6.98,.82,1.45,2.64,2.11,4.3,2,1.66-.12,3.21-.87,4.66-1.69,7.5-4.21,14-10.41,22.23-12.89,2.38-.72,5.33-1.55,5.83-3.99,.36-1.76-.83-3.44-2.01-4.8Z" style="fill:#fff;"></path></g><g style="opacity:.2;"><path d="M287.67,311.83c-5.36-.36-10.67,2.22-14.29,6.19-3.62,3.97-5.67,9.18-6.54,14.48-.3,1.83-.31,4.07,1.22,5.13,1.82,1.27,4.25-.16,5.91-1.62,3.39-2.97,6.28-7.48,9.56-12.51,2.07-3.18,7.56-9.97,4.14-11.66Z" style="fill:#fff;"></path></g><g style="opacity:.2;"><path d="M261.39,316.07c-.8-1.71-2.85-1.82-4.58-1.72-11.93,.69-23.65,4.71-33.5,11.48-.64,.44-1.11,1.12-1.21,1.89-.17,1.3,.7,2.22,1.97,2.57,1.69,.46,3.48,.36,5.22,.2,9.9-.92,19.61-3.86,28.36-8.58,1.49-.8,3.01-1.71,3.71-3.34,.34-.8,.39-1.71,.03-2.5Z" style="fill:#fff;"></path></g><g style="opacity:.2;"><path d="M337.89,341.98c-1.72-3.85-5.19-7.65-14.33-5.77-8.07,1.7-15.65,5.68-21.62,11.36-2,1.91-3.97,4.62-3.01,7.21,1.01,2.73,4.49,3.41,7.39,3.59,7.91,.49,16.08,.29,23.41-2.71,2.63-1.07,5.76-3.19,7.48-5.44,2.17-2.83,1.67-6.01,.67-8.25Z" style="fill:#fff;"></path></g><g style="opacity:.2;"><path d="M336.98,384.19c-.99-1.85-5.42-4.14-7.49-3.76-4.2,.33-7.62,3.8-9.18,7.72-1.55,3.92-1.6,8.24-1.63,12.46-.01,1.54,.03,3.23,1.03,4.41,1.57,1.85,4.55,1.41,6.75,.4,5.94-2.74,10.32-8.6,11.26-15.08,.3-2.08,.25-4.3-.74-6.15Z" style="fill:#fff;"></path></g><path d="M316.84,315.23c-.34,.63-2.48,.14-4.79-1.1-2.3-1.24-3.89-2.76-3.55-3.39,.34-.63,2.48-.14,4.79,1.1,2.3,1.24,3.89,2.76,3.55,3.39Z" style="fill:#fff;"></path><path d="M332.39,346.13c-.65,.32-1.91-.93-3.05-2.65-1.13-1.72-1.79-3.37-1.24-3.85,.54-.47,2.18,.53,3.42,2.41,1.24,1.88,1.52,3.78,.88,4.09Z" style="fill:#fff;"></path><path d="M333.96,398.97c-.68-.26-.46-2.5-.06-5.13,.42-2.63,.89-4.83,1.62-4.87,.71-.04,1.41,2.34,.95,5.27-.45,2.93-1.85,4.99-2.51,4.73Z" style="fill:#fff;"></path><path d="M286.77,312.74c0,.72-1.52,1.32-3.42,1.35-1.9,.02-3.44-.54-3.45-1.26,0-.72,1.52-1.32,3.42-1.35,1.9-.02,3.44,.54,3.45,1.26Z" style="fill:#fff;"></path><path d="M253.95,314.53c.1,.71-2.41,1.64-5.6,2.08-3.19,.44-5.86,.21-5.96-.5-.1-.71,2.41-1.64,5.6-2.08,3.19-.44,5.86-.21,5.96,.5Z" style="fill:#fff;"></path></g><g><path d="M266.65,330.72c6.08-.9,12.29,.26,17.6,3.33,.08,.05,.16,.09,.24,.14,7.88,4.6,17.09,15.9,19.15,21.69,2.06,5.79-2.98,6.01,0,11.38s.85,19.48,.85,19.48l-7.84-3.86-27.31-45.34-16.19-4.82,13.51-2Z" style="opacity:.4;"></path><g><path d="M157.39,341.56c-3.34,2.13-5.98,5.23-7.39,8.94-1.14,3-1.53,6.41,.81,8.91,5.21,5.53,43.14,4.4,43.14,4.4,0,0,1.77,3.75,12.94,9.53,14.03,7.25,14.18,19.79,22.87,23.36,2.41,.99,2.6,.16,2.6,.16,0,0,3.91,7.65,2.77,14.81s-7.65,19.05-6.02,23.6c1.63,4.56,7,9.44,19.7,4.56,12.7-4.88,27.83-17.74,34.02-27.02,6.19-9.28,6.67-14.81,6.67-14.81,0,0,1.95,3.17,6.51-5.17,4.56-8.34,6.02-26.73,0-31.29,0,0,.98-3.74,.33-9.6-.56-5.02-20.35-41.51-60.55-27.18,0,0-9.93-3.26-19.04,1.14,0,0-42.91,4.13-59.35,15.69h0Z" style="fill:#ff9a6c;"></path><path d="M217.27,325.63s-.65,.23-1.81,.65c-1.16,.41-2.81,1.11-4.71,2.21-1.9,1.1-4.02,2.66-6.1,4.69-2.08,2.02-4.11,4.52-5.92,7.34-3.64,5.66-4.96,11.8-5.11,16.17-.1,2.2,.02,3.98,.15,5.21,.13,1.23,.23,1.9,.19,1.91-.02,0-.06-.16-.13-.48-.06-.32-.18-.79-.26-1.4-.19-1.22-.36-3.02-.31-5.24,.06-4.42,1.34-10.68,5.04-16.43,1.83-2.85,3.9-5.37,6.03-7.4,2.13-2.03,4.3-3.59,6.25-4.66,1.95-1.08,3.64-1.73,4.82-2.08,.59-.2,1.07-.28,1.38-.37,.32-.07,.49-.1,.49-.09Z" style="fill:#263238;"></path><g style="opacity:.4;"><path d="M290.76,389.76c-2.49-5.04-6.71-9.3-11.7-11.95-6.33-3.35-13.68-4.32-20.83-3.53-1.85,.2-3.68,.51-5.48,.94-5.5,1.3-10.84,3.59-15.2,7.18-4.3,3.54-7.56,8.19-8.71,13.64,.14,.25,.64,.56,.85,.65,2.5,.99,2.67,.15,2.67,.15,0,0,1.16-5.1,7.78-11.37,1.78-1.69,4.1-3.09,6.8-4.59,3.84-2.12,8.75-3.5,15.05-3.43,.22,0,.43-.02,.65-.03,0,0,10.28,.97,18.28,7.41,3.77,3.04,6.96,7.56,8.58,13.14,.36,.38,1.23,1.52,3.65-.94-.33-2.5-1.27-5.01-2.39-7.28Zm-58.73,6.91l.02,.06-.02-.06Z"></path></g><g style="opacity:.3;"><path d="M211.44,326.48s-15.15,6.27-19.34,24.42c0,0-1.07,6.55-3.54,7.62s-22,4.68-22,4.68h0c12.42,1.04,27.4,.59,27.4,.59h0s-2.84-12.87,4.57-23.44c5.56-7.94,13.34-12.54,16.87-14.34-.91,.1-2.26,.26-3.95,.47Z"></path></g><g style="opacity:.2;"><path d="M232.04,396.82l.34,.02s3.91,7.65,2.77,14.81c-.7,4.42-3.45,10.64-5.07,15.82,2.15-2.23,3.74-5.2,5.08-8.05,2.07-4.4,4.01-8.97,4.49-13.81,.48-4.84-1.25-10.64-4.66-14.1-1.29,1.65-2.28,3.42-2.94,5.31Z"></path></g><g style="opacity:.4;"><path d="M296.3,359.98c.17-1.6,.55-4.52,.05-8.07-4.23-3.68-9.65-7-14.86-9.06-8.68-3.43-18.34-4.34-27.51-2.58-11.03,2.11-21.04,7.93-29.88,14.85-2.09,1.64-4.16,3.36-6.6,4.41-2.44,1.05-5.36,1.34-7.7,.08,0,0-.87,4.89,6.14,3.8,7.01-1.1,14.64-8.69,21.01-12.21,7.39-4.08,14.88-6.09,22.95-6.59s20.49,3.23,29.16,8.53c3.11,1.9,5.76,5.32,7.24,6.84Z"></path></g><path d="M296.15,359.39s-.09-.09-.23-.29c-.16-.22-.37-.51-.63-.88-.62-.72-1.52-1.81-2.93-2.96-2.76-2.34-7.34-5.05-13.43-7.27-3.04-1.11-6.47-2.12-10.2-2.83-3.74-.67-7.84-.87-12.09-.46-4.25,.44-8.66,1.48-12.94,3.31-4.3,1.8-8.31,4.53-12.35,7.4-4.05,2.85-8.1,5.63-12.53,7.3-1.11,.39-2.21,.81-3.38,.98-1.15,.18-2.39,.2-3.49-.3-1.11-.48-1.91-1.5-2.25-2.6-.36-1.1-.38-2.23-.32-3.32,.43-4.33,1.61-8.31,3.24-11.79,1.62-3.49,3.63-6.49,5.73-8.98,4.23-5.01,8.78-7.91,12-9.58,1.64-.79,2.94-1.36,3.85-1.65l1.03-.36c.23-.08,.35-.11,.36-.11,0,0-.11,.06-.34,.16-.25,.1-.59,.24-1.01,.41-.9,.32-2.18,.92-3.8,1.73-3.17,1.71-7.66,4.64-11.81,9.63-2.06,2.49-4.04,5.47-5.62,8.93-1.6,3.44-2.75,7.41-3.16,11.64-.06,1.05-.03,2.13,.3,3.14,.32,1,1.01,1.88,1.99,2.3,.97,.44,2.11,.44,3.21,.26,1.11-.17,2.19-.58,3.28-.96,4.35-1.65,8.37-4.4,12.41-7.25,4.03-2.86,8.09-5.63,12.45-7.44,4.33-1.84,8.8-2.88,13.1-3.32,4.3-.41,8.44-.18,12.22,.51,3.77,.74,7.2,1.76,10.25,2.91,6.11,2.27,10.7,5.05,13.44,7.46,1.4,1.18,2.29,2.3,2.88,3.05,.25,.39,.44,.69,.59,.92,.13,.21,.19,.32,.19,.32Z" style="fill:#263238;"></path><path d="M289.51,397.98c-.06,.02-.32-.99-1-2.72-.68-1.73-1.97-4.13-4.11-6.68-1.05-1.29-2.39-2.54-3.88-3.8-1.55-1.18-3.25-2.42-5.22-3.4-.95-.55-2.01-.95-3.05-1.43-1.08-.39-2.17-.82-3.33-1.12-2.3-.64-4.75-1.09-7.28-1.13-2.53-.05-5,.23-7.33,.74-2.33,.55-4.5,1.35-6.49,2.27-3.96,1.92-7.16,4.35-9.45,6.75-2.31,2.4-3.85,4.64-4.76,6.26-.92,1.62-1.34,2.57-1.39,2.55-.02,0,.08-.25,.28-.7,.22-.44,.46-1.14,.94-1.95,.86-1.67,2.37-3.96,4.67-6.42,2.29-2.46,5.51-4.96,9.51-6.93,2.02-.94,4.22-1.77,6.58-2.33,2.37-.53,4.88-.82,7.46-.76,2.58,.04,5.07,.5,7.41,1.16,1.18,.3,2.29,.74,3.38,1.15,1.06,.49,2.13,.9,3.09,1.47,1.99,1.01,3.7,2.28,5.27,3.49,1.5,1.29,2.84,2.58,3.89,3.9,2.13,2.61,3.39,5.07,4.02,6.84,.37,.86,.49,1.6,.64,2.06,.13,.48,.19,.73,.17,.73Z" style="fill:#263238;"></path><g style="opacity:.2;"><path d="M280.96,384.92c-4.9-4.38-11.44-6.99-17.99-7.54,4.84,6.27,6.62,14.67,5.28,22.47-1.34,7.8-5.66,14.97-11.56,20.24-5.91,5.27-13.34,8.7-21.08,10.37-1.71,.37-3.46,.66-5.02,1.43-.62,.3-1.2,.69-1.71,1.16-.04,.85,.02,1.6,.24,2.22,1.63,4.56,7,9.44,19.7,4.56,12.7-4.88,27.83-17.74,34.02-27.02,5.18-7.77,6.43-13.35,6.67-14.81-.95-5.74-4.54-9.48-8.55-13.06Z"></path></g><g style="opacity:.2;"><path d="M296.02,361.52s.13,.74,.28-1.53c-9.42-13.22-33.44-15.69-33.44-15.69,0,0,10.26,6.91,11.3,18.21,.67,7.3-8.45,10.48-15,11.81,24.61-2.01,32.52,15.71,34.56,22.09,.68-.85,1.45-2.02,2.31-3.59,4.56-8.34,6.02-26.73,0-31.29Z"></path></g></g><g style="opacity:.2;"><path d="M245.07,332.26c-1.13-1.31-2.33-2.59-3.84-3.43-1.51-.84-3.39-1.17-4.98-.51l.24,.03c-8.07,3.88-15.24,9.62-20.79,16.65-1.4,1.78-2.75,4.21-1.64,6.18,.73,1.29,2.33,1.87,3.81,1.77,1.47-.1,2.84-.77,4.13-1.5,6.64-3.73,12.4-9.23,19.69-11.42,2.11-.63,4.72-1.38,5.16-3.53,.32-1.56-.74-3.04-1.78-4.25Z" style="fill:#fff;"></path></g><g style="opacity:.2;"><path d="M217.08,331.04c-4.75-.32-9.45,1.97-12.66,5.48-3.21,3.51-5.02,8.13-5.79,12.82-.27,1.63-.27,3.6,1.08,4.55,1.61,1.12,3.76-.14,5.24-1.44,3-2.63,5.56-6.62,8.47-11.08,1.84-2.82,6.69-8.84,3.67-10.33Z" style="fill:#fff;"></path></g><g style="opacity:.2;"><path d="M193.8,334.8c-.71-1.52-2.52-1.61-4.05-1.52-10.57,.61-20.95,4.17-29.67,10.17-.57,.39-.98,.99-1.07,1.67-.15,1.15,.62,1.97,1.75,2.27,1.5,.41,3.08,.32,4.63,.18,8.77-.81,17.37-3.42,25.12-7.6,1.32-.71,2.66-1.52,3.28-2.96,.3-.7,.35-1.52,.02-2.21Z" style="fill:#fff;"></path></g><g style="opacity:.2;"><path d="M261.57,357.74c-1.53-3.41-4.6-6.78-12.69-5.11-7.15,1.5-13.86,5.03-19.15,10.06-1.77,1.69-3.51,4.09-2.67,6.39,.89,2.42,3.98,3.02,6.55,3.18,7.01,.43,14.24,.26,20.74-2.4,2.33-.95,5.1-2.83,6.63-4.82,1.93-2.51,1.48-5.32,.59-7.31Z" style="fill:#fff;"></path></g><g style="opacity:.2;"><path d="M260.76,395.13c-.88-1.64-4.8-3.67-6.63-3.33-3.72,.29-6.75,3.37-8.13,6.84-1.38,3.47-1.42,7.3-1.45,11.03,0,1.37,.03,2.86,.91,3.91,1.39,1.64,4.03,1.25,5.98,.35,5.26-2.42,9.14-7.62,9.98-13.35,.27-1.84,.22-3.81-.66-5.45Z" style="fill:#fff;"></path></g><path d="M244.83,332.99c-.36,.62-1.98,.35-3.61-.61-1.63-.96-2.65-2.24-2.29-2.86,.36-.62,1.98-.35,3.61,.61,1.63,.96,2.65,2.24,2.29,2.86Z" style="fill:#fff;"></path><path d="M260.08,362.47c-.72,.12-1.51-1.08-2.13-2.57-.61-1.49-.89-2.91-.3-3.33,.58-.42,1.97,.54,2.7,2.33,.74,1.79,.43,3.45-.28,3.56Z" style="fill:#fff;"></path><path d="M260.09,407.55c-.69-.27-.39-2.61-.41-5.37,.02-2.77-.29-5.11,.4-5.38,.33-.12,.86,.36,1.34,1.32,.48,.96,.86,2.41,.86,4.05,0,1.63-.38,3.09-.85,4.05-.47,.97-1.01,1.45-1.34,1.33Z" style="fill:#fff;"></path><path d="M216.04,333.35c-.24,.69-1.75,.78-3.44,.88-1.69,.06-3.2,.1-3.5-.57-.13-.33,.12-.8,.73-1.22,.6-.42,1.56-.77,2.66-.82,1.1-.05,2.08,.21,2.72,.58,.64,.37,.94,.81,.83,1.15Z" style="fill:#fff;"></path><path d="M179.29,336.46c-.02,.73-1.68,1.27-3.6,1.81-1.94,.51-3.64,.89-4.02,.27-.39-.59,.99-2.15,3.34-2.79,2.35-.64,4.32,0,4.29,.7Z" style="fill:#fff;"></path></g></g><g id="freepik--Cereals--inject-104"><g><g><path d="M45.04,219.15s.61,82.33,95.34,84.1h.6c94.74-1.77,95.34-85.12,95.34-85.12l-191.29,1.02Z" style="fill:#FF725E;"></path><g><ellipse cx="140.68" cy="219.25" rx="95.64" ry="23.84" style="fill:#FF725E;"></ellipse><path d="M55.68,226.66c11.09-7.61,46.37-14.77,84.65-14.77s70.7,5.51,81.78,13.12c2.65-1.82,4.09-3.76,4.09-5.77,0-10.43-38.44-18.89-85.87-18.89s-85.87,8.46-85.87,18.89c0,2.01-1.43,5.6,1.22,7.42Z" style="opacity:.3;"></path></g><path d="M55.68,226.66c13.29,15.53,50.31,17,88.59,17s73.82-5.89,81.93-18.38c-11.09-7.61-47.59-13.39-85.87-13.39s-73.56,7.16-84.65,14.77Z" style="fill:#fafafa;"></path></g><g><path d="M158.95,214.74c3.18-4.9,1.93-11.93-2.81-15.7-4.73-3.78-11.15-2.87-14.33,2.03-3.18,4.9-1.93,11.93,2.81,15.7s11.15,2.87,14.33-2.03Zm-12.35-5.9c-.65-1.35-.93-2.99-.35-4.29,.55-1.21,1.78-1.92,3.05-1.98,1.27-.06,2.55,.47,3.65,1.25,1.19,.85,2.23,2.11,2.49,3.6,.26,1.49-1.32,4.32-2.67,4.56h.01c-.75,.34-1.63,.43-2.46,.22-1.6-.41-2.94-1.77-3.72-3.36Z" style="fill:#ff9a6c;"></path><path d="M148.81,206.09c1.27-.06,2.55,.47,3.65,1.25,.97,.7,1.84,1.66,2.26,2.8,.52-.92,.85-1.98,.72-2.72-.26-1.49-1.3-2.74-2.49-3.6-1.09-.79-2.38-1.31-3.65-1.25-1.27,.06-2.51,.77-3.05,1.98-.4,.88-.39,1.93-.14,2.93,.63-.85,1.65-1.35,2.7-1.4Z" style="fill:#ff9a6c;"></path><g style="opacity:.3;"><path d="M148.8,206.09c1.27-.06,2.55,.47,3.65,1.25,.97,.7,1.84,1.66,2.26,2.8,.52-.92,.85-1.98,.72-2.72-.26-1.49-1.3-2.74-2.49-3.6-1.09-.79-2.38-1.31-3.65-1.25s-2.51,.77-3.05,1.98c-.4,.88-.39,1.93-.14,2.93,.63-.85,1.65-1.35,2.7-1.4Z"></path></g><g style="opacity:.3;"><path d="M146.58,218.03c-4.48-4.57-5.4-6.14-5.72-10.25-.15-1.97,.87-4.89,1.7-6.58,.69-1.4,1.78-2.47,2.92-3.47-1.43,.73-2.71,1.85-3.68,3.34-3.18,4.9-1.93,11.93,2.81,15.7,.63,.5,1.29,.92,1.97,1.25Z"></path></g><g style="opacity:.2;"><g style="opacity:.3;"><path d="M156.21,215.2l.04-.02c2.49-1.54,3.88-4.65,3.51-7.84-.18-1.58-.69-3.13-1.49-4.37-.28-.44-.61-.85-1.03-1.13-.42-.27-.95-.38-1.37-.18-.44,.21-.69,.72-.75,1.24-.06,.52,.05,1.06,.2,1.58,.34,1.22,.84,2.41,.95,3.66,.12,1.38-.29,2.76-1.1,3.76-.4,.49-.89,.9-1.19,1.48-.3,.57-.35,1.4,.12,1.88,.57,.6,1.48,.34,2.13-.06Z" style="fill:#fff;"></path></g></g></g><g><path d="M83.72,221c1.9-5.66-.99-12.07-6.46-14.32-5.47-2.25-11.44,.51-13.34,6.16-1.9,5.66,.99,12.07,6.46,14.32s11.44-.51,13.34-6.16Zm-13.33-2.07c-.95-1.11-1.62-2.61-1.36-4.03,.24-1.33,1.26-2.38,2.47-2.8,1.21-.43,2.57-.3,3.82,.14,1.35,.47,2.66,1.38,3.26,2.74,.6,1.36-.24,4.55-1.48,5.18h0c-.64,.55-1.47,.9-2.32,.93-1.64,.07-3.26-.84-4.39-2.15Z" style="fill:#ffbf9d;"></path><path d="M71.86,215.63c1.21-.43,2.57-.3,3.82,.14,1.1,.39,2.17,1.07,2.85,2.04,.28-1.04,.34-2.16,.04-2.83-.6-1.36-1.91-2.26-3.26-2.74-1.24-.44-2.61-.57-3.82-.14-1.21,.43-2.23,1.48-2.47,2.8-.17,.97,.08,1.97,.56,2.87,.41-1.01,1.27-1.78,2.27-2.14Z" style="fill:#ff9a6c;"></path><g style="opacity:.3;"><path d="M71.86,215.63c1.21-.43,2.57-.3,3.82,.14,1.1,.39,2.17,1.07,2.85,2.04,.28-1.04,.34-2.16,.04-2.83-.6-1.36-1.91-2.26-3.26-2.74-1.24-.44-2.61-.57-3.82-.14-1.21,.43-2.23,1.48-2.47,2.8-.17,.97,.08,1.97,.56,2.87,.41-1.01,1.27-1.78,2.27-2.14Z"></path></g><g style="opacity:.3;"><path d="M72.58,227.8c-5.41-3.09-6.68-4.33-7.97-8.21-.62-1.86-.33-4.97,.07-6.84,.33-1.55,1.12-2.91,1.98-4.2-1.21,1.13-2.17,2.58-2.75,4.3-1.9,5.66,.99,12.07,6.46,14.32,.73,.3,1.46,.5,2.2,.63Z"></path></g><g style="opacity:.2;"><g style="opacity:.3;"><path d="M81.18,222.25l.03-.03c2.04-2.22,2.63-5.62,1.51-8.59-.55-1.47-1.41-2.82-2.49-3.78-.38-.34-.79-.65-1.26-.79-.47-.14-1.01-.09-1.37,.23-.37,.33-.5,.9-.43,1.42,.07,.52,.31,1.01,.57,1.46,.62,1.08,1.39,2.08,1.79,3.26,.44,1.29,.38,2.75-.16,3.95-.27,.59-.65,1.13-.8,1.77-.15,.64,0,1.45,.56,1.78,.69,.41,1.5-.11,2.04-.68Z" style="fill:#fff;"></path></g></g></g><g><path d="M226.66,218.69c1.9-5.11-.99-10.89-6.46-12.93-5.47-2.03-11.44,.46-13.34,5.56-1.9,5.11,.99,10.89,6.46,12.93,5.47,2.03,11.44-.46,13.34-5.56Zm-13.33-1.87c-.95-1-1.62-2.36-1.36-3.64,.24-1.2,1.26-2.14,2.47-2.53,1.21-.39,2.57-.27,3.82,.13,1.35,.43,2.66,1.25,3.26,2.47,.6,1.23-.24,4.11-1.48,4.67h0c-.64,.49-1.47,.81-2.32,.84-1.64,.07-3.26-.76-4.39-1.94Z" style="fill:#ffbf9d;"></path><path d="M214.81,213.84c1.21-.39,2.57-.27,3.82,.13,1.1,.35,2.17,.96,2.85,1.84,.28-.94,.34-1.95,.04-2.56-.6-1.23-1.91-2.04-3.26-2.47-1.24-.4-2.61-.51-3.82-.13-1.21,.39-2.23,1.33-2.47,2.53-.17,.88,.08,1.78,.56,2.59,.41-.91,1.27-1.61,2.27-1.93Z" style="fill:#ff9a6c;"></path><g style="opacity:.3;"><path d="M214.8,213.84c1.21-.39,2.57-.27,3.82,.13,1.1,.35,2.17,.96,2.85,1.84,.28-.94,.34-1.95,.04-2.56-.6-1.23-1.91-2.04-3.26-2.47-1.24-.4-2.61-.51-3.82-.13-1.21,.39-2.23,1.33-2.47,2.53-.17,.88,.08,1.78,.56,2.59,.41-.91,1.27-1.61,2.27-1.93Z"></path></g><g style="opacity:.3;"><path d="M215.52,224.82c-5.41-2.79-6.68-3.91-7.97-7.41-.62-1.68-.33-4.49,.07-6.18,.33-1.4,1.12-2.62,1.98-3.79-1.21,1.02-2.17,2.33-2.75,3.88-1.9,5.11,.99,10.89,6.46,12.93,.73,.27,1.46,.46,2.2,.57Z"></path></g><g style="opacity:.2;"><g style="opacity:.3;"><path d="M224.12,219.82l.03-.03c2.04-2,2.63-5.07,1.51-7.76-.55-1.33-1.41-2.54-2.49-3.41-.38-.3-.79-.58-1.26-.71s-1.01-.08-1.37,.21c-.37,.3-.5,.81-.43,1.28s.31,.91,.57,1.32c.62,.97,1.39,1.88,1.79,2.94,.44,1.17,.38,2.48-.16,3.57-.27,.54-.65,1.02-.8,1.6-.15,.58,0,1.31,.56,1.61,.69,.37,1.5-.1,2.04-.61Z" style="fill:#fff;"></path></g></g></g><g><path d="M100.24,197.07c-.49,2.28-4.08,17.06,10.9,23.03s22.22-5.2,21.96-15.47c-.26-10.27-2.71-14.26-6.66-17.56-3.95-3.3-11.14-3.64-14.65-2.1-3.51,1.55-9.77,3.76-11.55,12.1Z" style="fill:#ff9a6c;"></path><path d="M97.64,196.91c-.49,2.28-4.08,17.06,10.9,23.03,14.99,5.97,22.22-5.2,21.96-15.47-.26-10.27-2.71-14.26-6.66-17.56-3.95-3.3-11.14-3.64-14.65-2.1-3.51,1.55-9.77,3.76-11.55,12.1Z" style="fill:#ffbf9d;"></path><path d="M111.37,202.24c-.45-.02-.98,.02-1.24,.44-.2,.34-.29,.92-.21,1.31,.07,.34,.3,.58,.55,.79,.29,.24,.66,.31,1.01,.19,.73-.25,1.44-.6,2.11-1.02,.21-.13,.48-.38,.7-.6,.2-.2,.12-.58-.15-.65-.91-.26-1.84-.41-2.77-.46Z" style="fill:#c17560;"></path><path d="M115.42,207.49c.03,.5,.13,1.08,.53,1.31,.32,.19,.85,.22,1.2,.08,.3-.12,.49-.39,.65-.69,.19-.34,.2-.77,.06-1.13-.31-.78-.7-1.52-1.15-2.21-.12-.19-.33-.42-.52-.62-.24-.25-.64-.08-.68,.28-.12,.99-.15,1.98-.09,2.97Z" style="fill:#c17560;"></path><path d="M117.71,200.16c.27-.4,.53-.91,.36-1.38-.14-.37-.52-.78-.86-.92-.29-.12-.6-.05-.9,.06-.34,.12-.6,.44-.71,.82-.22,.81-.36,1.66-.42,2.51-.02,.23,0,.55,.04,.84,.04,.36,.44,.52,.68,.28,.67-.67,1.27-1.4,1.81-2.2Z" style="fill:#c17560;"></path><path d="M103.42,191.3c-.08,.5,.81,1.31,1.26,1.42,.45,.11,.92-.06,1.32-.31,.81-.49,1.46-1.28,1.84-2.21,.22-.55,.33-1.26-.04-1.7-.23-.28-.59-.37-.93-.39-.85-.05-1.72,.28-2.36,.91s-1.05,1.54-1.1,2.49" style="fill:#fff;"></path><path d="M132.71,201.92c.03,.09-.42,.34-1.02,.37-.6,.04-1.08-.15-1.06-.24,.02-.1,.48-.09,1.04-.12,.56-.03,1.02-.11,1.04,0Z" style="fill:#c17560;"></path><path d="M132.65,204.97c.03,.1-.41,.32-.99,.42-.58,.1-1.06,.03-1.06-.07,0-.1,.45-.2,1.01-.29,.56-.09,1.01-.16,1.04-.06Z" style="fill:#c17560;"></path><path d="M132.6,209.9c0,.1-.57,.21-1.28,.23-.71,.03-1.29-.03-1.3-.14s.57-.21,1.28-.23c.71-.03,1.29,.03,1.29,.14Z" style="fill:#c17560;"></path></g><g><path d="M102.87,222.55c3.49-13.97,17.78-23.11,32.64-19.83,14.87,3.28,24.08,17.27,20.59,31.24" style="fill:#455a64;"></path><path d="M102.87,222.55c3.49-13.97,17.78-23.11,32.64-19.83,14.87,3.28,24.08,17.27,20.59,31.24" style="opacity:.1;"></path><path d="M154.38,233.71c3.39-13.56-5.2-27.06-19.18-30.14s-27.29,5.78-30.68,19.34l49.86,10.8Z" style="fill:#455a64;"></path><path d="M140.05,223.4c-.05-.22-.25-.39-.49-.42-.25-.03-.5,.1-.7,.24-.21,.14-.38,.33-.47,.54-.04,.08,0,.17,.09,.19,.24,.06,.49,.1,.74,.11,.19,.01,.4,0,.57-.09,.2-.11,.31-.35,.26-.57Z" style="fill:#263238;"></path><path d="M139.99,221.48c-.09-.21-.32-.35-.55-.34-.26,0-.47,.17-.65,.34-.18,.17-.32,.39-.38,.6-.02,.08,.03,.16,.12,.17,.25,.02,.5,.02,.75,0,.19-.02,.4-.06,.54-.18,.18-.14,.25-.4,.16-.6Z" style="fill:#263238;"></path><path d="M140.8,225.14c.02-.22-.13-.44-.34-.53-.23-.1-.51-.04-.75,.05-.24,.08-.46,.22-.62,.39-.06,.06-.05,.16,.03,.21,.21,.12,.44,.22,.68,.3,.18,.06,.38,.11,.57,.06,.23-.06,.4-.26,.42-.48Z" style="fill:#263238;"></path><path d="M139.71,228.24c.13-.18,.13-.44,0-.62-.15-.19-.42-.27-.67-.32-.25-.04-.52-.03-.74,.04-.08,.03-.13,.12-.09,.19,.12,.21,.26,.41,.42,.59,.12,.14,.27,.28,.46,.33,.23,.06,.49-.03,.62-.21Z" style="fill:#263238;"></path><path d="M138.26,229.91c.22-.07,.38-.29,.38-.51,0-.24-.16-.45-.34-.63-.18-.17-.4-.31-.63-.38-.09-.02-.18,.03-.19,.11-.03,.23-.04,.47-.03,.71,.01,.18,.05,.37,.17,.52,.14,.17,.41,.25,.63,.17Z" style="fill:#263238;"></path><path d="M140.68,230.37c.15-.17,.18-.43,.07-.62-.13-.21-.38-.32-.62-.39-.24-.07-.51-.09-.74-.03-.09,.02-.14,.1-.11,.18,.09,.22,.21,.43,.35,.63,.11,.15,.24,.3,.42,.37,.22,.08,.49,.02,.64-.14Z" style="fill:#263238;"></path><path d="M144.55,227.81c.09-.2,.04-.46-.13-.61-.19-.16-.46-.19-.72-.19-.26,0-.52,.06-.72,.17-.08,.04-.1,.14-.04,.2,.16,.18,.34,.35,.53,.5,.15,.12,.32,.22,.52,.24,.23,.02,.47-.12,.57-.32Z" style="fill:#263238;"></path><path d="M138.86,219.18c-.18-.14-.46-.16-.66-.04-.22,.12-.32,.37-.39,.6-.07,.23-.08,.48-.02,.7,.02,.08,.12,.13,.2,.1,.23-.09,.45-.21,.66-.35,.16-.11,.32-.23,.38-.4,.08-.21,0-.46-.17-.6Z" style="fill:#263238;"></path><path d="M136.58,218.87c-.18-.14-.46-.16-.66-.04-.22,.12-.32,.37-.39,.6s-.08,.48-.02,.7c.02,.08,.12,.13,.2,.1,.23-.09,.45-.21,.66-.35,.16-.11,.32-.23,.38-.4,.08-.21,0-.46-.17-.6Z" style="fill:#263238;"></path><path d="M135.87,217.25c-.14-.18-.4-.27-.62-.2-.25,.07-.41,.27-.54,.48-.13,.21-.21,.45-.21,.67,0,.08,.08,.15,.16,.14,.25-.03,.49-.09,.73-.17,.18-.06,.37-.15,.48-.29,.14-.18,.14-.44,0-.62Z" style="fill:#263238;"></path><path d="M140.13,216.62c-.17-.15-.45-.18-.66-.07-.22,.11-.34,.35-.42,.58-.08,.23-.1,.48-.05,.7,.02,.08,.11,.13,.19,.1,.24-.08,.46-.19,.67-.32,.16-.1,.33-.22,.4-.39,.09-.2,.03-.46-.14-.61Z" style="fill:#263238;"></path><path d="M122.57,220.42c-.17,.15-.22,.41-.12,.61,.11,.22,.35,.34,.59,.43,.24,.09,.5,.12,.74,.09,.09-.01,.15-.09,.12-.17-.07-.23-.17-.44-.3-.65-.09-.16-.21-.32-.38-.4-.21-.1-.48-.06-.65,.1Z" style="fill:#263238;"></path><path d="M120.01,220.69c-.14,.18-.14,.44-.01,.62,.14,.2,.41,.29,.66,.34,.25,.05,.52,.05,.74-.02,.08-.03,.13-.11,.09-.19-.11-.21-.25-.41-.4-.6-.12-.14-.26-.28-.45-.34-.22-.07-.49,.02-.63,.19Z" style="fill:#263238;"></path><path d="M123.37,217.98c-.21,.1-.33,.34-.3,.55,.04,.24,.24,.42,.44,.57,.2,.15,.45,.25,.68,.28,.09,.01,.17-.05,.17-.13,0-.24-.03-.47-.09-.7-.04-.18-.11-.36-.25-.49-.17-.15-.45-.18-.65-.08Z" style="fill:#263238;"></path><path d="M126.25,217.32c-.23,0-.47,.13-.56,.34-.1,.22-.03,.48,.07,.7,.09,.22,.25,.43,.43,.57,.07,.05,.17,.04,.22-.03,.12-.21,.23-.42,.3-.65,.06-.17,.11-.36,.05-.54-.07-.21-.28-.37-.52-.38Z" style="fill:#263238;"></path><path d="M128.53,217.58c-.18-.14-.46-.15-.66-.04-.22,.13-.32,.37-.38,.6-.06,.23-.07,.48,0,.7,.02,.08,.12,.13,.2,.09,.23-.1,.45-.22,.65-.36,.16-.11,.31-.24,.38-.41,.08-.21,0-.46-.18-.6Z" style="fill:#263238;"></path><path d="M127.65,215.42c-.23-.03-.48,.08-.59,.28-.12,.21-.08,.47-.01,.7,.07,.23,.19,.45,.36,.61,.06,.06,.17,.06,.22-.01,.15-.19,.28-.4,.38-.61,.08-.17,.15-.35,.11-.53-.04-.22-.24-.4-.47-.43Z" style="fill:#263238;"></path><path d="M130.1,216.37c-.19-.13-.46-.14-.66-.02-.21,.13-.31,.38-.37,.61-.06,.23-.06,.49,.01,.7,.03,.08,.12,.12,.2,.09,.23-.1,.44-.23,.64-.37,.16-.11,.31-.24,.37-.42,.07-.21,0-.46-.2-.59Z" style="fill:#263238;"></path><path d="M123.29,213.7c-.23,.03-.43,.21-.48,.43-.05,.24,.07,.47,.21,.67,.14,.2,.33,.38,.54,.48,.08,.04,.18,0,.21-.07,.08-.22,.14-.46,.17-.69,.02-.18,.03-.38-.06-.54-.11-.2-.35-.31-.59-.28Z" style="fill:#263238;"></path><path d="M118.54,222.82c-.03,.22,.1,.45,.31,.55,.23,.11,.5,.06,.75,0,.24-.07,.48-.2,.64-.36,.06-.06,.05-.16-.02-.21-.21-.13-.43-.25-.66-.34-.18-.07-.38-.13-.57-.09-.23,.04-.42,.24-.45,.45Z" style="fill:#263238;"></path><path d="M121.27,222.87c-.13,.18-.12,.44,.02,.62,.15,.19,.42,.26,.67,.3,.25,.04,.52,.02,.74-.06,.08-.03,.12-.12,.08-.19-.12-.21-.27-.4-.43-.58-.13-.14-.28-.27-.47-.32-.23-.06-.49,.04-.62,.22Z" style="fill:#263238;"></path><path d="M119.47,224.8c-.03,.22,.1,.45,.31,.55,.23,.11,.5,.06,.75,0,.24-.07,.48-.2,.64-.36,.06-.06,.05-.16-.02-.21-.21-.13-.43-.25-.66-.34-.18-.07-.38-.13-.57-.09-.23,.04-.42,.24-.45,.45Z" style="fill:#263238;"></path><path d="M115.56,223.16c-.04,.22,.08,.45,.28,.56,.22,.12,.5,.09,.75,.03,.25-.06,.49-.17,.65-.33,.06-.06,.06-.16,0-.21-.2-.14-.42-.27-.64-.37-.18-.08-.37-.14-.56-.12-.23,.03-.43,.22-.47,.43Z" style="fill:#263238;"></path><g style="opacity:.1;"><path d="M143.1,231.22c1.1-.02,2.2-.13,3.29-.34,.3-.06,.63-.14,.78-.39,.25-.4-.13-.88-.51-1.18-1.03-.79-2.29-1.3-3.61-1.46,1.35-.02,2.7-.27,3.96-.73,.69-.25,1.49-.84,1.21-1.49-.27-.62-1.23-.56-1.92-.38-1.7,.44-3.4,.88-5.1,1.31,2.36-.64,4.56-1.81,6.37-3.38,.48-.42,.97-.97,.82-1.57-.12-.48-.63-.8-1.15-.86-.52-.06-1.04,.08-1.53,.24-.65,.21-1.28,.47-1.9,.76,1.23-.95,2.24-2.16,2.9-3.52,.21-.43,.35-1.02-.05-1.31-.34-.24-.82-.08-1.2,.11-1.89,.91-3.62,2.13-5.09,3.58,1.72-1.6,2.91-3.69,3.37-5.92,.1-.5,.08-1.16-.42-1.35-.47-.17-.94,.23-1.27,.6-1.56,1.78-2.99,3.66-4.26,5.64,.57-1.16,1.15-2.34,1.33-3.6,.18-1.27-.09-2.65-1.03-3.57-2.28,1.57-3.33,4.23-4.26,6.74,.25-2.41-.09-4.87-.99-7.13-.18-.44-.45-.94-.95-1.02-.77-.13-1.21,.79-1.36,1.51-.38,1.8-.77,3.6-1.15,5.39,.08-2.09-.31-4.2-1.16-6.15-.14-.32-.38-.69-.75-.67-.39,.03-.56,.47-.63,.84-.41,2.21-.51,4.47-.3,6.7-.62-1.89-1.42-3.72-2.41-5.46-.28-.49-.74-1.05-1.32-.93-.54,.12-.72,.75-.74,1.28-.09,1.6,.26,3.21,.97,4.67-1-1.63-2.39-3.05-4.04-4.12-.04,1.87,.56,3.74,1.65,5.29-.86-.75-1.89-1.33-3.02-1.64-.61-.17-1.38-.22-1.75,.27-.47,.63,.18,1.44,.79,1.95l.04,.04c-.53-.21-1.07-.4-1.62-.57-.78-.24-1.83-.33-2.21,.35-.2,.36-.11,.81,.13,1.15,.23,.34,.58,.59,.92,.83,.84,.6,1.68,1.19,2.52,1.79-1.66-.37-3.46-.13-4.95,.67-.03,.02-.06,.04-.1,.06l31.66,6.99Z"></path></g><g style="opacity:.3;"><path d="M134.38,229.3c-.3-.77-.15-1.69,.44-2.3-.76-.6-.6-2.02,0-2.82-.82,.46-1.91,.28-2.67-.26-.76-.53-1.24-1.35-1.58-2.19-.47,.66-.95,1.42-1.75,1.69-.44,.15-1.47,.06-2.29-.4-.13,1.09-.36,2.19-.9,3.16-.23,.41-.47,.74-.74,1.01l9.51,2.1Z" style="fill:#fff;"></path></g><g style="opacity:.3;"><path d="M136.82,229.84c-.52-1.17-.3-2.64,.61-3.59-1.14-.9-.9-3.03-.01-4.24-1.23,.69-2.87,.42-4.02-.39-1.15-.8-1.87-2.03-2.37-3.29-.7,1-1.43,2.14-2.63,2.55-.66,.22-2.21,.09-3.44-.6-.19,1.64-.54,3.29-1.36,4.74-.38,.67-.76,1.2-1.22,1.62l14.44,3.19Z" style="fill:#fff;"></path></g></g><g><path d="M119.29,209.97c-6.25,0-11.31,5.61-11.31,12.53s5.06,12.53,11.31,12.53,11.31-5.61,11.31-12.53-5.06-12.53-11.31-12.53Zm3.32,15.59c-.69,1.47-1.89,2.77-3.37,3.02-1.38,.23-2.81-.51-3.71-1.7-.9-1.18-1.32-2.75-1.39-4.3-.08-1.68,.28-3.47,1.36-4.65,1.08-1.18,4.51-1.43,5.62-.28h-.02c.8,.5,1.47,1.29,1.85,2.22,.72,1.79,.49,3.94-.33,5.69Z" style="fill:#FF725E;"></path><path d="M118.81,225.16c-.9-1.19-1.32-2.75-1.39-4.3-.06-1.37,.17-2.81,.84-3.93-1.12,.07-2.23,.43-2.77,1.01-1.08,1.18-1.43,2.97-1.36,4.65,.07,1.55,.49,3.11,1.39,4.3,.9,1.19,2.33,1.93,3.71,1.7,1.01-.17,1.88-.83,2.56-1.7-1.14-.08-2.24-.75-2.98-1.72Z" style="fill:#FF725E;"></path><g style="opacity:.3;"><path d="M118.81,225.16c-.9-1.19-1.32-2.75-1.39-4.3-.06-1.37,.17-2.81,.84-3.93-1.12,.07-2.23,.43-2.77,1.01-1.08,1.18-1.43,2.97-1.36,4.65,.07,1.55,.49,3.11,1.39,4.3,.9,1.19,2.33,1.93,3.71,1.7,1.01-.17,1.88-.83,2.56-1.7-1.14-.08-2.24-.75-2.98-1.72Z"></path></g><g style="opacity:.3;"><path d="M130.34,219.82c-.84,7.17-1.54,9.05-4.78,11.92-1.55,1.38-4.69,2.23-6.67,2.48-1.64,.21-3.27-.16-4.87-.64,1.58,.92,3.37,1.45,5.27,1.45,6.25,0,11.31-5.61,11.31-12.53,0-.92-.1-1.82-.27-2.68Z"></path></g><g style="opacity:.2;"><g style="opacity:.3;"><path d="M121.51,212.32l-.05-.02c-2.96-1.44-6.5-.82-8.94,1.53-1.2,1.16-2.17,2.62-2.67,4.17-.18,.55-.31,1.12-.26,1.7,.05,.58,.31,1.15,.77,1.43,.47,.29,1.07,.22,1.54-.05,.48-.27,.85-.72,1.19-1.18,.8-1.09,1.46-2.32,2.44-3.21,1.08-.97,2.51-1.45,3.9-1.3,.68,.07,1.36,.29,2.04,.23,.68-.07,1.41-.54,1.5-1.29,.12-.92-.71-1.63-1.47-2.01Z" style="fill:#fff;"></path></g></g></g><path d="M107.15,229.33c.02-.53,25.01-.27,24.75,0-.26,.27-2.77,7.1-9.33,7.16-6.56,.06-15.65-1.38-15.42-7.16Z" style="fill:#fafafa;"></path><g><path d="M143.98,235.56c1.9-5.66-.99-12.07-6.46-14.32-5.47-2.25-11.44,.51-13.34,6.16-1.9,5.66,.99,12.07,6.46,14.32,5.47,2.25,11.44-.51,13.34-6.16Zm-13.33-2.07c-.95-1.11-1.62-2.61-1.36-4.03,.24-1.33,1.26-2.38,2.47-2.8,1.21-.43,2.57-.3,3.82,.14,1.35,.47,2.66,1.38,3.26,2.74,.6,1.36-.24,4.55-1.48,5.18h0c-.64,.55-1.47,.9-2.32,.93-1.64,.07-3.26-.84-4.39-2.15Z" style="fill:#ffbf9d;"></path><path d="M132.13,230.19c1.21-.43,2.57-.3,3.82,.14,1.1,.39,2.17,1.07,2.85,2.04,.28-1.04,.34-2.16,.04-2.83-.6-1.36-1.91-2.26-3.26-2.74-1.24-.44-2.61-.57-3.82-.14-1.21,.43-2.23,1.48-2.47,2.8-.17,.97,.08,1.97,.56,2.87,.41-1.01,1.27-1.78,2.27-2.14Z" style="fill:#ff9a6c;"></path><g style="opacity:.3;"><path d="M132.13,230.19c1.21-.43,2.57-.3,3.82,.14,1.1,.39,2.17,1.07,2.85,2.04,.28-1.04,.34-2.16,.04-2.83-.6-1.36-1.91-2.26-3.26-2.74-1.24-.44-2.61-.57-3.82-.14-1.21,.43-2.23,1.48-2.47,2.81-.17,.97,.08,1.97,.56,2.87,.41-1.01,1.27-1.78,2.27-2.14Z"></path></g><g style="opacity:.3;"><path d="M132.85,242.36c-5.41-3.09-6.68-4.33-7.97-8.21-.62-1.86-.33-4.97,.07-6.84,.33-1.55,1.12-2.91,1.98-4.2-1.21,1.13-2.17,2.58-2.75,4.3-1.9,5.66,.99,12.07,6.46,14.32,.73,.3,1.46,.5,2.2,.63Z"></path></g><g style="opacity:.2;"><g style="opacity:.3;"><path d="M141.45,236.81l.03-.03c2.04-2.22,2.63-5.62,1.51-8.59-.55-1.47-1.41-2.82-2.49-3.78-.38-.34-.79-.65-1.26-.79-.47-.14-1.01-.09-1.37,.23-.37,.33-.5,.9-.43,1.42,.07,.52,.31,1.01,.57,1.46,.62,1.08,1.39,2.08,1.79,3.26,.44,1.29,.38,2.75-.16,3.95-.27,.59-.65,1.13-.8,1.77-.15,.64,0,1.45,.56,1.78,.69,.41,1.5-.11,2.04-.68Z" style="fill:#fff;"></path></g></g></g><g><path d="M147.59,222.73c-4.97-2.47-10.94,.3-13.33,6.19-2.39,5.89-.3,12.68,4.67,15.15,4.97,2.47,10.94-.3,13.33-6.19,2.39-5.89,.3-12.68-4.67-15.15Zm-2.75,14.59c-1.06,.98-2.46,1.61-3.72,1.24-1.18-.35-2.06-1.55-2.36-2.92-.31-1.37-.1-2.86,.38-4.21,.52-1.46,1.42-2.84,2.68-3.42,1.26-.58,4.08,.57,4.57,1.98h-.01c.46,.74,.72,1.67,.7,2.62-.04,1.81-.98,3.55-2.23,4.71Z" style="fill:#ff9a6c;"></path><path d="M141.97,235.47c-.31-1.37-.1-2.86,.38-4.21,.42-1.19,1.1-2.32,2.03-3.02-.92-.38-1.92-.52-2.55-.24-1.26,.58-2.17,1.96-2.68,3.42-.48,1.35-.69,2.84-.38,4.21,.31,1.37,1.18,2.57,2.36,2.92,.86,.26,1.78,.04,2.62-.43-.88-.52-1.52-1.52-1.78-2.65Z" style="fill:#ff9a6c;"></path><g style="opacity:.3;"><path d="M141.97,235.48c-.31-1.37-.1-2.86,.38-4.21,.42-1.19,1.1-2.32,2.03-3.02-.92-.38-1.92-.52-2.55-.24-1.26,.58-2.17,1.96-2.68,3.42-.48,1.35-.69,2.84-.38,4.21,.31,1.37,1.18,2.57,2.36,2.92,.86,.26,1.78,.04,2.62-.43-.88-.52-1.52-1.52-1.78-2.65Z"></path></g><g style="opacity:.3;"><path d="M152.97,235.49c-3.15,5.78-4.35,7.09-7.92,8.26-1.71,.56-4.5,.04-6.16-.53-1.37-.47-2.54-1.43-3.65-2.47,.93,1.41,2.18,2.57,3.69,3.32,4.97,2.47,10.94-.3,13.33-6.19,.32-.78,.55-1.58,.71-2.39Z"></path></g><g style="opacity:.2;"><g style="opacity:.3;"><path d="M148.55,225.62l-.03-.04c-1.86-2.4-4.89-3.28-7.64-2.24-1.36,.51-2.63,1.37-3.57,2.5-.33,.39-.63,.83-.79,1.34-.16,.51-.15,1.11,.12,1.53,.27,.43,.77,.61,1.25,.57,.47-.04,.93-.27,1.36-.53,1.01-.61,1.97-1.4,3.05-1.76,1.19-.4,2.5-.24,3.55,.44,.52,.33,.98,.79,1.54,1,.57,.21,1.31,.1,1.64-.5,.41-.74,0-1.67-.48-2.29Z" style="fill:#fff;"></path></g></g></g><g><path d="M144.27,243.67c-1.92-5.65-7.9-8.38-13.36-6.11-5.46,2.28-8.33,8.7-6.41,14.34,1.92,5.65,7.9,8.38,13.36,6.11,5.46-2.28,8.33-8.7,6.41-14.34Zm-11.28,8.12c-1.37-.14-2.76-.79-3.42-2.05-.61-1.17-.46-2.71,.2-3.91s1.76-2.1,2.96-2.67c1.3-.62,2.82-.89,4.08-.3,1.26,.59,2.52,3.61,1.95,4.98v-.02c-.15,.89-.57,1.75-1.19,2.4-1.19,1.24-2.96,1.74-4.59,1.57Z" style="fill:#FF725E;"></path><path d="M132.15,248.23c.66-1.2,1.76-2.1,2.96-2.67,1.06-.51,2.27-.77,3.36-.53-.4-.99-1.02-1.88-1.65-2.17-1.26-.59-2.78-.32-4.08,.3-1.2,.57-2.3,1.47-2.96,2.67s-.81,2.74-.2,3.91c.44,.86,1.23,1.43,2.12,1.75-.29-1.05-.1-2.27,.44-3.26Z" style="fill:#FF725E;"></path><g style="opacity:.3;"><path d="M132.15,248.23c.66-1.2,1.76-2.1,2.96-2.67,1.06-.51,2.27-.77,3.36-.53-.4-.99-1.02-1.88-1.65-2.17-1.26-.59-2.78-.32-4.08,.3-1.2,.57-2.3,1.47-2.96,2.67s-.81,2.74-.2,3.91c.44,.86,1.23,1.43,2.12,1.75-.29-1.05-.1-2.27,.44-3.26Z"></path></g><g style="opacity:.3;"><path d="M139.89,256.89c-5.92,1.6-7.61,1.59-10.87-.4-1.56-.95-3.2-3.51-4-5.21-.67-1.41-.88-3.01-.99-4.61-.24,1.73-.11,3.52,.48,5.24,1.92,5.65,7.9,8.38,13.36,6.11,.73-.3,1.4-.68,2.03-1.12Z"></path></g><g style="opacity:.2;"><g style="opacity:.3;"><path d="M143.1,246.45v-.05c.23-3.15-1.34-6.15-3.95-7.58-1.29-.71-2.73-1.1-4.11-1.04-.48,.02-.98,.09-1.42,.32-.44,.24-.81,.66-.9,1.17-.08,.52,.16,1.04,.52,1.38,.36,.34,.83,.54,1.29,.69,1.1,.37,2.28,.56,3.28,1.15,1.1,.66,1.92,1.79,2.22,3.1,.15,.64,.18,1.32,.45,1.92,.26,.59,.86,1.09,1.48,.94,.76-.19,1.07-1.18,1.13-1.99Z" style="fill:#fff;"></path></g></g></g><g><path d="M125.74,240.93c1.09,.5,1.96,1.47,2.41,2.68,.09-.58,.12-1.17,.08-1.75-.02-.18-.13-1.11-.13-1.11,0,0,.52,.16,1.08,.38,.29,.15,.62,.16,.92,.04-.35-.71-.77-1.37-1.15-2.06,.98-.06,1.9-.59,2.5-1.46-1.13,.33-2.33,.07-3.26-.7,1.77-5.28-.66-11.14-5.42-13.1-4.76-1.96-10.06,.73-11.83,6-1.77,5.28,.66,11.14,5.42,13.1,3.21,1.32,6.82,.56,9.36-1.98l.02-.03Z" style="fill:#263238;"></path><g style="opacity:.4;"><path d="M124.34,237.44c1.04,.21,2.08-.42,2.47-1.51,.67-1.62,.72-3.47,.12-5.12-.6-1.65-1.55-3.11-2.78-4.25-.87-1.02-2.06-1.65-3.32-1.75-1.26,.01-2.55,1.24-2.32,2.61,.31,1.03,1.02,1.85,1.94,2.23,.91,.38,1.67,1.13,2.12,2.09,.35,1.12-.22,2.36-.05,3.53,.15,1.07,.88,1.93,1.83,2.18Z" style="fill:#fff;"></path></g><g style="opacity:.4;"><path d="M119.8,243.56c-1.41-.07-2.79-.51-4.02-1.28-4.41-2.78-5.95-9-3.44-13.88,1.48-2.87,4.12-4.77,7.09-5.09-5.06,.13-9.07,4.78-8.96,10.39,.07,3.57,1.83,6.83,4.63,8.59,1.43,.89,3.05,1.33,4.7,1.27Z"></path></g></g><g><g><path d="M108.9,219.41c-3.38-4.73-9.83-5.32-14.4-1.31s-5.54,11.1-2.16,15.83c3.38,4.73,9.83,5.32,14.4,1.31,4.57-4.01,5.54-11.1,2.16-15.83Zm-8.51,11.54c-1.35,.33-2.85,.18-3.82-.8-.9-.91-1.18-2.43-.88-3.79s1.1-2.59,2.09-3.54c1.07-1.03,2.44-1.8,3.8-1.67,1.36,.13,3.39,2.59,3.23,4.09v-.02c.09,.9-.07,1.86-.48,2.69-.79,1.59-2.34,2.65-3.94,3.04Z" style="fill:#ff9a6c;"></path><path d="M98.61,227.84c.3-1.37,1.1-2.59,2.09-3.54,.87-.84,1.95-1.5,3.06-1.64-.65-.81-1.49-1.44-2.17-1.51-1.36-.13-2.74,.64-3.8,1.67-.98,.95-1.79,2.17-2.09,3.54s-.02,2.88,.88,3.79c.66,.67,1.57,.94,2.51,.95-.56-.91-.72-2.13-.47-3.26Z" style="fill:#ff9a6c;"></path><g style="opacity:.3;"><path d="M98.61,227.84c.3-1.37,1.1-2.59,2.09-3.54,.87-.84,1.95-1.5,3.06-1.64-.65-.81-1.49-1.44-2.17-1.51-1.36-.13-2.74,.64-3.8,1.67-.98,.95-1.79,2.17-2.09,3.54-.3,1.37-.02,2.88,.88,3.79,.66,.67,1.57,.94,2.51,.95-.56-.91-.72-2.13-.47-3.26Z"></path></g><g style="opacity:.3;"><path d="M108.37,233.48c-5.19,3.52-6.81,4.08-10.47,3.29-1.75-.38-4.01-2.26-5.25-3.62-1.02-1.12-1.66-2.57-2.21-4.06,.24,1.73,.86,3.39,1.9,4.83,3.38,4.73,9.83,5.32,14.4,1.31,.61-.53,1.15-1.12,1.63-1.75Z"></path></g><g style="opacity:.2;"><g style="opacity:.3;"><path d="M108.55,222.45v-.05c-.66-3.08-2.98-5.4-5.86-5.89-1.42-.24-2.91-.13-4.2,.4-.46,.18-.91,.42-1.26,.79-.35,.37-.59,.91-.53,1.41,.06,.52,.43,.93,.87,1.14,.44,.2,.94,.23,1.42,.22,1.15-.02,2.33-.24,3.44,0,1.23,.25,2.32,1.06,2.97,2.2,.32,.56,.54,1.2,.95,1.68,.41,.48,1.12,.75,1.67,.39,.67-.44,.7-1.48,.53-2.28Z" style="fill:#fff;"></path></g></g></g><path d="M118.51,251.59c1.9-5.66-.99-12.07-6.46-14.32-5.47-2.25-11.44,.51-13.34,6.16-1.9,5.66,.99,12.07,6.46,14.32s11.44-.51,13.34-6.16Zm-13.33-2.07c-.95-1.11-1.62-2.61-1.36-4.03,.24-1.33,1.26-2.38,2.47-2.8,1.21-.43,2.57-.3,3.82,.14,1.35,.47,2.66,1.38,3.26,2.74,.6,1.36-.24,4.55-1.48,5.18h0c-.64,.55-1.47,.9-2.32,.93-1.64,.07-3.26-.84-4.39-2.15Z" style="fill:#ffbf9d;"></path><path d="M106.65,246.22c1.21-.43,2.57-.3,3.82,.14,1.1,.39,2.17,1.07,2.85,2.04,.28-1.04,.34-2.16,.04-2.83-.6-1.36-1.91-2.26-3.26-2.74-1.24-.44-2.61-.57-3.82-.14-1.21,.43-2.23,1.48-2.47,2.8-.17,.97,.08,1.97,.56,2.87,.41-1.01,1.27-1.78,2.27-2.14Z" style="fill:#ff9a6c;"></path><g style="opacity:.3;"><path d="M106.65,246.22c1.21-.43,2.57-.3,3.82,.14,1.1,.39,2.17,1.07,2.85,2.04,.28-1.04,.34-2.16,.04-2.83-.6-1.36-1.91-2.26-3.26-2.74-1.24-.44-2.61-.57-3.82-.14-1.21,.43-2.23,1.48-2.47,2.8-.17,.97,.08,1.97,.56,2.87,.41-1.01,1.27-1.78,2.27-2.14Z"></path></g><g style="opacity:.3;"><path d="M107.37,258.39c-5.41-3.09-6.68-4.33-7.97-8.21-.62-1.86-.33-4.97,.07-6.84,.33-1.55,1.12-2.91,1.98-4.2-1.21,1.13-2.17,2.58-2.75,4.3-1.9,5.66,.99,12.07,6.46,14.32,.73,.3,1.46,.5,2.2,.63Z"></path></g><g style="opacity:.2;"><g style="opacity:.3;"><path d="M115.97,252.84l.03-.03c2.04-2.22,2.63-5.62,1.51-8.59-.55-1.47-1.41-2.82-2.49-3.78-.38-.34-.79-.65-1.26-.79-.47-.14-1.01-.09-1.37,.23-.37,.33-.5,.9-.43,1.42,.07,.52,.31,1.01,.57,1.46,.62,1.08,1.39,2.08,1.79,3.26,.44,1.29,.38,2.75-.16,3.95-.27,.59-.65,1.13-.8,1.77-.15,.64,0,1.45,.56,1.78,.69,.41,1.5-.11,2.04-.68Z" style="fill:#fff;"></path></g></g></g><g><path d="M98.65,222.67c1.9-5.66-.99-12.07-6.46-14.32s-11.44,.51-13.34,6.16c-1.9,5.66,.99,12.07,6.46,14.32,5.47,2.25,11.44-.51,13.34-6.16Zm-13.33-2.07c-.95-1.11-1.62-2.61-1.36-4.03,.24-1.33,1.26-2.38,2.47-2.8,1.21-.43,2.57-.3,3.82,.14,1.35,.47,2.66,1.38,3.26,2.74,.6,1.36-.24,4.55-1.48,5.18h0c-.64,.55-1.47,.9-2.32,.93-1.64,.07-3.26-.84-4.39-2.15Z" style="fill:#ffbf9d;"></path><path d="M86.79,217.3c1.21-.43,2.57-.3,3.82,.14,1.1,.39,2.17,1.07,2.85,2.04,.28-1.04,.34-2.16,.04-2.83-.6-1.36-1.91-2.26-3.26-2.74-1.24-.44-2.61-.57-3.82-.14-1.21,.43-2.23,1.48-2.47,2.8-.17,.97,.08,1.97,.56,2.87,.41-1.01,1.27-1.78,2.27-2.14Z" style="fill:#ff9a6c;"></path><g style="opacity:.3;"><path d="M86.79,217.3c1.21-.43,2.57-.3,3.82,.14,1.1,.39,2.17,1.07,2.85,2.04,.28-1.04,.34-2.16,.04-2.83-.6-1.36-1.91-2.26-3.26-2.74-1.24-.44-2.61-.57-3.82-.14-1.21,.43-2.23,1.48-2.47,2.8-.17,.97,.08,1.97,.56,2.87,.41-1.01,1.27-1.78,2.27-2.14Z"></path></g><g style="opacity:.3;"><path d="M87.51,229.46c-5.41-3.09-6.68-4.33-7.97-8.21-.62-1.86-.33-4.97,.07-6.84,.33-1.55,1.12-2.91,1.98-4.2-1.21,1.13-2.17,2.58-2.75,4.3-1.9,5.66,.99,12.07,6.46,14.32,.73,.3,1.46,.5,2.2,.63Z"></path></g><g style="opacity:.2;"><g style="opacity:.3;"><path d="M96.11,223.92l.03-.03c2.04-2.22,2.63-5.62,1.51-8.59-.55-1.47-1.41-2.82-2.49-3.78-.38-.34-.79-.65-1.26-.79s-1.01-.09-1.37,.23c-.37,.33-.5,.9-.43,1.42,.07,.52,.31,1.01,.57,1.46,.62,1.08,1.39,2.08,1.79,3.26,.44,1.29,.38,2.75-.16,3.95-.27,.59-.65,1.13-.8,1.77-.15,.64,0,1.45,.56,1.78,.69,.41,1.5-.11,2.04-.68Z" style="fill:#fff;"></path></g></g></g><g><path d="M77.34,214.85c-5.38-.98-10.5,3.39-11.45,9.76-.95,6.37,2.64,12.34,8.01,13.32,5.37,.98,10.5-3.39,11.45-9.76,.95-6.37-2.64-12.34-8.01-13.32Zm.72,14.88c-.8,1.25-2,2.26-3.31,2.25-1.22,0-2.35-.92-2.96-2.15-.61-1.23-.76-2.74-.61-4.18,.16-1.56,.71-3.15,1.8-4.07,1.09-.92,4.08-.61,4.87,.62h-.01c.62,.58,1.09,1.42,1.28,2.34,.38,1.77-.12,3.71-1.07,5.19Z" style="fill:#ff9a6c;"></path><path d="M74.85,228.76c-.61-1.23-.76-2.74-.61-4.18,.13-1.27,.53-2.56,1.26-3.49-.97-.11-1.98,.04-2.52,.5-1.09,.92-1.64,2.51-1.8,4.07-.15,1.44,0,2.94,.61,4.18,.61,1.23,1.74,2.14,2.96,2.15,.89,0,1.73-.47,2.43-1.16-.97-.25-1.82-1.04-2.33-2.06Z" style="fill:#ff9a6c;"></path><g style="opacity:.3;"><path d="M74.85,228.76c-.61-1.23-.76-2.74-.61-4.18,.13-1.27,.53-2.56,1.26-3.49-.97-.11-1.98,.04-2.52,.5-1.09,.92-1.64,2.51-1.8,4.07-.15,1.44,0,2.94,.61,4.18s1.74,2.14,2.96,2.15c.89,0,1.73-.47,2.43-1.16-.97-.25-1.82-1.04-2.33-2.06Z"></path></g><g style="opacity:.3;"><path d="M85.49,225.65c-1.71,6.47-2.56,8.09-5.75,10.23-1.53,1.03-4.34,1.31-6.08,1.24-1.44-.07-2.79-.66-4.1-1.35,1.23,1.1,2.7,1.86,4.34,2.16,5.37,.98,10.5-3.39,11.45-9.76,.13-.85,.17-1.69,.14-2.51Z"></path></g><g style="opacity:.2;"><g style="opacity:.3;"><path d="M78.93,217.36l-.04-.03c-2.35-1.79-5.48-1.78-7.9,0-1.2,.88-2.23,2.07-2.87,3.43-.23,.47-.42,.98-.46,1.52-.04,.54,.11,1.11,.47,1.44,.36,.34,.89,.37,1.34,.19,.45-.17,.83-.53,1.19-.9,.84-.88,1.58-1.91,2.54-2.57,1.06-.73,2.36-.94,3.53-.58,.58,.18,1.13,.48,1.72,.53,.6,.04,1.28-.28,1.47-.95,.23-.83-.38-1.61-.99-2.08Z" style="fill:#fff;"></path></g></g></g><g><path d="M174.04,203.76c-.49,2.28-4.08,17.06,10.9,23.03s22.22-5.2,21.96-15.47c-.26-10.27-2.71-14.26-6.66-17.56-3.95-3.3-11.14-3.64-14.65-2.1-3.51,1.55-9.77,3.76-11.55,12.1Z" style="fill:#ff9a6c;"></path><path d="M171.44,203.61c-.49,2.28-4.08,17.06,10.9,23.03,14.99,5.97,22.22-5.2,21.96-15.47-.26-10.27-2.71-14.26-6.66-17.56-3.95-3.3-11.14-3.64-14.65-2.1-3.51,1.55-9.77,3.76-11.55,12.1Z" style="fill:#ffbf9d;"></path><path d="M185.16,208.93c-.45-.02-.98,.02-1.24,.44-.2,.34-.29,.92-.21,1.31,.07,.34,.3,.58,.55,.79,.29,.24,.66,.31,1.01,.19,.73-.25,1.44-.6,2.11-1.02,.21-.13,.48-.38,.7-.6,.2-.21,.12-.58-.15-.65-.91-.26-1.84-.41-2.77-.46Z" style="fill:#c17560;"></path><path d="M189.21,214.18c.03,.5,.13,1.08,.53,1.31,.32,.19,.85,.22,1.2,.08,.3-.12,.49-.39,.65-.69,.19-.34,.2-.77,.06-1.13-.31-.78-.7-1.52-1.15-2.21-.12-.19-.33-.42-.52-.62-.24-.25-.64-.08-.68,.28-.12,.99-.15,1.98-.09,2.97Z" style="fill:#c17560;"></path><path d="M191.5,206.85c.27-.4,.54-.91,.36-1.38-.14-.37-.52-.78-.86-.92-.29-.12-.6-.05-.9,.06-.34,.12-.6,.44-.71,.82-.22,.81-.36,1.66-.42,2.51-.02,.23,0,.55,.04,.84,.04,.36,.44,.52,.68,.28,.67-.67,1.27-1.4,1.81-2.2Z" style="fill:#c17560;"></path><path d="M177.21,198c-.08,.5,.81,1.31,1.26,1.42,.45,.11,.92-.06,1.32-.31,.81-.49,1.46-1.28,1.84-2.21,.22-.55,.33-1.26-.04-1.7-.23-.28-.59-.37-.93-.39-.85-.05-1.72,.28-2.36,.91s-1.05,1.54-1.1,2.49" style="fill:#fff;"></path><path d="M206.5,208.61c.03,.09-.42,.34-1.02,.37-.6,.04-1.08-.15-1.06-.24,.02-.1,.48-.09,1.04-.12,.56-.03,1.02-.11,1.04,0Z" style="fill:#c17560;"></path><path d="M206.45,211.67c.03,.1-.41,.32-.99,.42-.58,.1-1.06,.03-1.06-.07,0-.1,.45-.2,1.01-.29,.56-.09,1.01-.16,1.04-.06Z" style="fill:#c17560;"></path><path d="M206.39,216.59c0,.1-.57,.21-1.28,.23-.71,.03-1.29-.03-1.3-.14s.57-.21,1.28-.23c.71-.03,1.29,.03,1.29,.14Z" style="fill:#c17560;"></path></g><path d="M63.73,229.15c-.12-.59,25.26,4.04,25.26,4.04,0,0-4.41,7.02-10.32,6.19-5.91-.83-13.11-1.4-14.94-10.23Z" style="fill:#fafafa;"></path><g><path d="M211.51,219.4c.52-1.18,1.44-2.08,2.56-2.5-.51-.14-1.04-.21-1.57-.2-.16,0-1.01,.08-1.01,.08,0,0,.17-.56,.4-1.17,.15-.31,.19-.68,.09-1.02-.66,.35-1.28,.77-1.93,1.14,0-1.09-.42-2.13-1.16-2.85,.23,1.27-.08,2.58-.84,3.56-4.64-2.28-10.08,.04-12.14,5.19-2.06,5.14,.04,11.16,4.68,13.45,4.64,2.28,10.08-.04,12.14-5.19,1.39-3.47,.92-7.5-1.21-10.47l-.03-.02Z" style="fill:#263238;"></path><g style="opacity:.4;"><path d="M208.28,220.74c.25-1.14-.25-2.32-1.21-2.82-1.42-.84-3.08-1.01-4.61-.45-1.52,.56-2.89,1.53-4,2.81-.98,.9-1.61,2.17-1.78,3.57-.07,1.4,.96,2.9,2.21,2.73,.95-.28,1.73-1.02,2.13-2.01,.4-.99,1.12-1.77,2.01-2.21,1.03-.31,2.11,.39,3.18,.28,.97-.1,1.79-.85,2.08-1.89Z" style="fill:#fff;"></path></g><g style="opacity:.4;"><path d="M213.52,226.13c-.15,1.56-.63,3.05-1.4,4.37-2.78,4.7-8.48,6.02-12.72,2.94-2.5-1.81-4.04-4.85-4.15-8.15-.2,5.61,3.75,10.33,8.81,10.54,3.22,.14,6.26-1.6,8.03-4.59,.89-1.53,1.39-3.3,1.43-5.11Z"></path></g></g><g><path d="M90.77,231.1c.52-1.18,1.44-2.08,2.56-2.5-.51-.14-1.04-.21-1.57-.2-.16,0-1.01,.08-1.01,.08,0,0,.17-.56,.4-1.17,.15-.31,.19-.68,.09-1.02-.66,.35-1.28,.77-1.93,1.14,0-1.09-.42-2.13-1.16-2.85,.23,1.27-.08,2.58-.84,3.57-4.64-2.28-10.08,.04-12.14,5.18-2.06,5.14,.04,11.16,4.68,13.45,4.64,2.28,10.08-.04,12.14-5.19,1.39-3.47,.92-7.5-1.21-10.47l-.03-.02Z" style="fill:#263238;"></path><g style="opacity:.4;"><path d="M87.54,232.44c.25-1.14-.25-2.32-1.21-2.82-1.42-.84-3.08-1.01-4.61-.45-1.52,.56-2.89,1.53-4,2.81-.98,.9-1.61,2.17-1.78,3.57-.07,1.4,.96,2.9,2.21,2.73,.95-.28,1.73-1.02,2.13-2.01,.4-.99,1.12-1.77,2.01-2.21,1.03-.31,2.11,.39,3.18,.28,.97-.1,1.79-.85,2.08-1.89Z" style="fill:#fff;"></path></g><g style="opacity:.4;"><path d="M92.77,237.83c-.15,1.56-.63,3.05-1.4,4.37-2.78,4.7-8.48,6.02-12.72,2.94-2.5-1.81-4.04-4.85-4.15-8.15-.2,5.61,3.75,10.33,8.81,10.54,3.22,.14,6.26-1.6,8.03-4.59,.89-1.53,1.39-3.3,1.43-5.11Z"></path></g></g><g><path d="M178.37,222.66c-.22-6.03-5.12-10.7-10.95-10.44-5.83,.26-10.37,5.36-10.15,11.39,.22,6.03,5.12,10.7,10.95,10.44,5.83-.26,10.37-5.36,10.15-11.39Zm-13.01,3.79c-1.26-.61-2.4-1.71-2.66-3.14-.24-1.33,.33-2.73,1.3-3.64,.97-.91,2.27-1.38,3.57-1.5,1.41-.14,2.93,.14,3.96,1.13,1.03,1,1.37,4.3,.44,5.41v-.02c-.39,.79-1.04,1.47-1.81,1.87-1.49,.77-3.3,.62-4.8-.11Z" style="fill:#ff9a6c;"></path><path d="M165.57,222.78c.97-.91,2.27-1.38,3.57-1.5,1.15-.11,2.37,.06,3.34,.66-.1-1.08-.44-2.14-.95-2.63-1.03-1-2.55-1.27-3.96-1.13-1.3,.13-2.6,.59-3.57,1.5-.97,.91-1.54,2.32-1.3,3.64,.18,.97,.77,1.78,1.52,2.4,.03-1.1,.55-2.19,1.35-2.94Z" style="fill:#ff9a6c;"></path><g style="opacity:.3;"><path d="M165.56,222.78c.97-.91,2.27-1.38,3.57-1.5,1.15-.11,2.37,.06,3.34,.66-.1-1.08-.44-2.14-.95-2.63-1.03-1-2.55-1.27-3.96-1.13-1.3,.13-2.6,.59-3.57,1.5-.97,.91-1.54,2.32-1.3,3.64,.18,.97,.77,1.78,1.52,2.4,.03-1.1,.55-2.19,1.35-2.94Z"></path></g><g style="opacity:.3;"><path d="M170.47,233.69c-6.07-.54-7.67-1.14-10.21-4.16-1.22-1.45-2.04-4.44-2.32-6.34-.23-1.57,.02-3.16,.37-4.72-.72,1.56-1.1,3.31-1.03,5.14,.22,6.03,5.12,10.7,10.95,10.44,.78-.03,1.53-.16,2.25-.36Z"></path></g><g style="opacity:.2;"><g style="opacity:.3;"><path d="M176.47,224.9l.02-.05c1.11-2.91,.46-6.31-1.6-8.57-1.02-1.12-2.28-2-3.61-2.42-.47-.15-.96-.26-1.44-.19-.48,.07-.96,.35-1.18,.8-.23,.46-.14,1.04,.1,1.49,.25,.45,.63,.8,1.03,1.11,.94,.73,2.01,1.32,2.79,2.24,.86,1,1.31,2.37,1.23,3.71-.04,.66-.2,1.32-.12,1.98,.08,.66,.51,1.34,1.14,1.4,.78,.08,1.35-.74,1.64-1.5Z" style="fill:#fff;"></path></g></g></g><g><path d="M179.43,237.91c-2.51-5.03-5.72-9.24-10.39-11.75-2.05-1.11-4.38-1.68-6.65-1.54-.93,.06-1.85,.24-2.74,.55-2.19,.76-5.09,2.61-6.55,4.57-4.05,5.46-6.74,12.14-7.69,19.13-.38,2.81-.47,5.77,.51,8.4l36.19-7.5c-.25-4.1-.89-8.26-2.68-11.86Z" style="fill:#FF725E;"></path><path d="M179.43,237.91c-2.51-5.03-5.72-9.24-10.39-11.75-2.05-1.11-4.38-1.68-6.65-1.54-.93,.06-1.85,.24-2.74,.55-2.19,.76-5.09,2.61-6.55,4.57-4.05,5.46-6.74,12.14-7.69,19.13-.38,2.81-.47,5.77,.51,8.4l36.19-7.5c-.25-4.1-.89-8.26-2.68-11.86Z" style="opacity:.3;"></path><path d="M171.23,242.37c.22-.19,.83,.36,1.1,1.28,.29,.91,.12,1.76-.16,1.76-.27,0-.53-.62-.78-1.4-.24-.79-.38-1.45-.17-1.64Z" style="fill:#fff;"></path><path d="M160.96,239.16c.22-.19,.83,.36,1.1,1.28,.29,.91,.12,1.76-.16,1.76-.27,0-.53-.62-.78-1.4-.24-.79-.38-1.45-.17-1.64Z" style="fill:#fff;"></path><path d="M170.19,231.89c.22-.19,.83,.36,1.1,1.28,.29,.91,.12,1.76-.16,1.76-.27,0-.53-.62-.78-1.4-.24-.79-.38-1.45-.17-1.64Z" style="fill:#fff;"></path><path d="M151.48,239.72c.26-.11,.68,.63,.69,1.6,.02,.97-.38,1.72-.64,1.62-.26-.09-.33-.77-.35-1.6,0-.84,.05-1.51,.3-1.61Z" style="fill:#fff;"></path><path d="M158.36,229.22c.26-.11,.68,.63,.69,1.6,.02,.97-.38,1.72-.64,1.62-.26-.09-.33-.77-.35-1.6,0-.84,.05-1.51,.3-1.61Z" style="fill:#fff;"></path><path d="M177.07,240.41c.22-.19,.83,.36,1.1,1.28,.29,.91,.12,1.76-.16,1.76-.27,0-.53-.62-.78-1.4-.24-.79-.38-1.45-.17-1.64Z" style="fill:#fff;"></path><g style="opacity:.4;"><path d="M166.27,235.01c.86-.58,1.35-1.8,1.08-2.87l.04-.3c-.24-1.26-1.02-2.43-2.11-2.88-1.09-.46-2.46-.08-3.11,1-.4,.67-.49,1.52-.37,2.31,.16,1.1,.74,2.13,1.6,2.7,.86,.57,2.01,.62,2.87,.04Z" style="fill:#fff;"></path></g></g><g><g><path d="M190.28,229.47c3.18-4.9,1.93-11.93-2.81-15.7s-11.15-2.87-14.33,2.03c-3.18,4.9-1.93,11.93,2.81,15.7,4.73,3.78,11.15,2.87,14.33-2.03Zm-12.35-5.9c-.65-1.35-.93-2.99-.35-4.29,.55-1.21,1.78-1.92,3.05-1.98,1.27-.06,2.55,.47,3.65,1.25,1.19,.85,2.23,2.11,2.49,3.6,.26,1.49-1.32,4.32-2.67,4.56h.01c-.75,.34-1.63,.43-2.46,.22-1.6-.41-2.95-1.77-3.72-3.36Z" style="fill:#ff9a6c;"></path><path d="M180.14,220.82c1.27-.06,2.55,.47,3.65,1.25,.97,.7,1.84,1.66,2.26,2.8,.52-.92,.85-1.98,.72-2.72-.26-1.49-1.3-2.74-2.49-3.6-1.09-.79-2.38-1.31-3.65-1.25-1.27,.06-2.51,.77-3.05,1.98-.4,.88-.39,1.93-.14,2.93,.63-.85,1.65-1.35,2.7-1.4Z" style="fill:#ff9a6c;"></path><g style="opacity:.3;"><path d="M180.13,220.82c1.27-.06,2.55,.47,3.65,1.25,.97,.7,1.84,1.66,2.26,2.8,.52-.92,.85-1.98,.72-2.72-.26-1.49-1.3-2.74-2.49-3.6-1.09-.79-2.38-1.31-3.65-1.25-1.27,.06-2.51,.77-3.05,1.98-.4,.88-.39,1.93-.14,2.93,.63-.85,1.65-1.35,2.7-1.4Z"></path></g><g style="opacity:.3;"><path d="M177.91,232.76c-4.48-4.57-5.4-6.14-5.72-10.25-.15-1.97,.87-4.89,1.7-6.58,.69-1.4,1.78-2.47,2.92-3.47-1.43,.73-2.71,1.85-3.68,3.34-3.18,4.9-1.93,11.93,2.81,15.7,.63,.5,1.29,.92,1.97,1.25Z"></path></g><g style="opacity:.2;"><g style="opacity:.3;"><path d="M187.54,229.93l.04-.02c2.49-1.54,3.88-4.65,3.51-7.84-.18-1.58-.69-3.13-1.49-4.37-.28-.44-.61-.85-1.03-1.13-.42-.27-.95-.38-1.37-.18-.44,.21-.69,.72-.75,1.24-.06,.52,.05,1.06,.2,1.58,.34,1.22,.84,2.41,.95,3.66,.12,1.38-.29,2.76-1.1,3.76-.4,.49-.89,.9-1.19,1.48-.3,.57-.35,1.4,.12,1.88,.57,.6,1.48,.34,2.13-.06Z" style="fill:#fff;"></path></g></g></g><path d="M201.29,241.87c3.18-4.9,1.93-11.93-2.81-15.7s-11.15-2.87-14.33,2.03c-3.18,4.9-1.93,11.93,2.81,15.7,4.73,3.78,11.15,2.87,14.33-2.03Zm-12.35-5.9c-.65-1.35-.93-2.99-.35-4.29,.55-1.21,1.78-1.92,3.05-1.98,1.27-.06,2.55,.47,3.65,1.25,1.19,.85,2.23,2.11,2.49,3.6,.26,1.49-1.32,4.32-2.67,4.56h.01c-.75,.34-1.63,.43-2.46,.22-1.6-.41-2.94-1.77-3.72-3.36Z" style="fill:#ff9a6c;"></path><path d="M191.14,233.21c1.27-.06,2.55,.47,3.65,1.25,.97,.7,1.84,1.66,2.26,2.8,.52-.92,.85-1.98,.72-2.72-.26-1.49-1.3-2.74-2.49-3.6-1.09-.79-2.38-1.31-3.65-1.25-1.27,.06-2.51,.77-3.05,1.98-.4,.88-.39,1.93-.14,2.93,.63-.85,1.65-1.35,2.7-1.4Z" style="fill:#ff9a6c;"></path><g style="opacity:.3;"><path d="M191.14,233.21c1.27-.06,2.55,.47,3.65,1.25,.97,.7,1.84,1.66,2.26,2.8,.52-.92,.85-1.98,.72-2.72-.26-1.49-1.3-2.74-2.49-3.6-1.09-.79-2.38-1.31-3.65-1.25-1.27,.06-2.51,.77-3.05,1.98-.4,.88-.39,1.93-.14,2.93,.63-.85,1.65-1.35,2.7-1.4Z"></path></g><g style="opacity:.3;"><path d="M188.92,245.15c-4.48-4.57-5.4-6.14-5.72-10.25-.15-1.97,.87-4.89,1.7-6.58,.69-1.4,1.78-2.47,2.92-3.47-1.43,.73-2.71,1.85-3.68,3.34-3.18,4.9-1.93,11.93,2.81,15.7,.63,.5,1.29,.92,1.97,1.25Z"></path></g><g style="opacity:.2;"><g style="opacity:.3;"><path d="M198.55,242.33l.04-.02c2.49-1.54,3.88-4.65,3.51-7.84-.18-1.58-.69-3.13-1.49-4.37-.28-.44-.61-.85-1.03-1.13-.42-.27-.95-.38-1.37-.18-.44,.21-.69,.72-.75,1.24s.05,1.06,.2,1.58c.34,1.22,.84,2.41,.95,3.66,.12,1.38-.29,2.76-1.1,3.76-.4,.49-.89,.9-1.19,1.48-.3,.57-.35,1.4,.12,1.88,.57,.6,1.48,.34,2.13-.06Z" style="fill:#fff;"></path></g></g></g><g><path d="M226.66,234.91c3.18-4.42,1.93-10.77-2.81-14.18-4.73-3.41-11.15-2.59-14.33,1.83-3.18,4.42-1.93,10.77,2.81,14.18,4.73,3.41,11.15,2.59,14.33-1.83Zm-12.35-5.33c-.65-1.22-.93-2.7-.35-3.87,.55-1.09,1.78-1.73,3.05-1.79,1.27-.05,2.55,.42,3.65,1.13,1.19,.77,2.23,1.9,2.49,3.25,.26,1.34-1.32,3.9-2.67,4.12h.01c-.75,.31-1.63,.39-2.46,.2-1.6-.37-2.94-1.6-3.72-3.04Z" style="fill:#ff9a6c;"></path><path d="M216.51,227.1c1.27-.05,2.55,.42,3.65,1.13,.97,.63,1.84,1.5,2.26,2.53,.52-.83,.85-1.79,.72-2.46-.26-1.34-1.3-2.48-2.49-3.25-1.09-.71-2.38-1.19-3.65-1.13-1.27,.05-2.51,.7-3.05,1.79-.4,.8-.39,1.74-.14,2.65,.63-.77,1.65-1.22,2.7-1.26Z" style="fill:#ff9a6c;"></path><g style="opacity:.3;"><path d="M216.51,227.1c1.27-.05,2.55,.42,3.65,1.13,.97,.63,1.84,1.5,2.26,2.53,.52-.83,.85-1.79,.72-2.46-.26-1.34-1.3-2.48-2.49-3.25-1.09-.71-2.38-1.19-3.65-1.13s-2.51,.7-3.05,1.79c-.4,.8-.39,1.74-.14,2.65,.63-.77,1.65-1.22,2.7-1.26Z"></path></g><g style="opacity:.3;"><path d="M214.29,237.88c-4.48-4.13-5.4-5.54-5.72-9.25-.15-1.78,.87-4.42,1.7-5.94,.69-1.26,1.78-2.23,2.92-3.13-1.43,.66-2.71,1.67-3.68,3.02-3.18,4.42-1.93,10.77,2.81,14.18,.63,.45,1.29,.83,1.97,1.13Z"></path></g><g style="opacity:.2;"><g style="opacity:.3;"><path d="M223.92,235.33l.04-.02c2.49-1.39,3.88-4.2,3.51-7.08-.18-1.42-.69-2.83-1.49-3.95-.28-.39-.61-.77-1.03-1.02-.42-.25-.95-.35-1.37-.16-.44,.19-.69,.65-.75,1.12s.05,.96,.2,1.42c.34,1.1,.84,2.18,.95,3.31,.12,1.24-.29,2.49-1.1,3.4-.4,.45-.89,.82-1.19,1.33-.3,.52-.35,1.26,.12,1.7,.57,.54,1.48,.3,2.13-.05Z" style="fill:#fff;"></path></g></g></g><path d="M58.55,229.44c-1.08,.72,17.68,10.39,51.93,13.74,10.9,1.07,23.73,2.15,37.52,1.24,55.76-3.65,66.2-9.45,74.12-14.98,1.98-1.38,5.41-6.87,5.13-7.67-1.35-3.78,4.87,7.44,4.87,7.44l-10,22.61-67.57,19.84s-59.66-1.22-60.7-1.88c-1.04-.66-27.28-14.3-27.28-14.3l-15.41-13.81,7.39-12.23Z" style="fill:#FF725E;"></path><path d="M45.04,223.55s.03,.18,.08,.53c.04,.35,.07,.88,.3,1.53,.36,1.32,1.35,3.16,3.23,4.97,1.87,1.83,4.54,3.65,7.85,5.34,3.31,1.69,7.27,3.24,11.74,4.66,17.89,5.69,43.84,9.09,72.45,9.11,28.62-.03,54.58-3.42,72.46-9.11,4.46-1.42,8.42-2.97,11.73-4.66,3.31-1.69,5.98-3.51,7.85-5.34,1.89-1.81,2.87-3.66,3.23-4.97,.23-.65,.26-1.18,.3-1.53,.04-.35,.08-.53,.08-.53,0,0,0,.18-.02,.54-.02,.35-.03,.89-.25,1.55-.33,1.34-1.3,3.23-3.19,5.09-1.86,1.87-4.54,3.73-7.86,5.45-3.32,1.72-7.28,3.3-11.76,4.75-17.91,5.8-43.91,9.26-72.58,9.28-28.65-.03-54.65-3.48-72.56-9.28-4.47-1.45-8.44-3.03-11.76-4.75-3.32-1.72-5.99-3.58-7.86-5.45-1.89-1.86-2.86-3.75-3.19-5.09-.22-.67-.23-1.2-.25-1.55-.02-.35-.02-.54-.02-.54Z" style="fill:#263238;"></path><path d="M54.46,223.05s.03,.16,.07,.47l.07,.58c.05,.22,.15,.48,.24,.77,.39,1.15,1.4,2.7,3.19,4.18,3.55,3.02,9.85,5.73,17.84,7.99,16.03,4.51,39.06,7.2,64.45,7.22,25.4-.02,48.43-2.71,64.46-7.22,7.99-2.25,14.29-4.97,17.84-7.99,1.79-1.48,2.8-3.03,3.19-4.18,.09-.29,.18-.54,.24-.77,.03-.22,.05-.42,.07-.58,.04-.31,.07-.47,.07-.47,0,0,0,.16-.02,.48-.01,.16-.03,.36-.05,.59-.05,.23-.13,.49-.22,.79-.36,1.18-1.37,2.78-3.16,4.3-3.56,3.1-9.87,5.88-17.87,8.19-16.06,4.62-39.12,7.36-64.56,7.39-25.43-.02-48.5-2.77-64.55-7.39-8-2.31-14.31-5.08-17.87-8.19-1.79-1.52-2.79-3.12-3.16-4.3-.08-.3-.17-.56-.22-.79-.02-.23-.03-.42-.05-.59-.02-.32-.02-.48-.02-.48Z" style="fill:#263238;"></path></g></g><g id="freepik--Spoon--inject-104"><g><g><path d="M18.23,302.04c1.23,5.51,20.26,19.8,35.36,18.83,0,0,3.49,.39,11.04-4.53,8.26-5.37,9.02-5.51,16.27-5.51s58.62,5.7,64.19,2.35c5.57-3.34,2.42-5.42,2.42-5.42,0,0-62.71-.56-70.51,.28-7.8,.84-13.1,6.69-18.39,2.79-4.8-3.53-24-17.59-36.69-14.61-2.61,.61-4.27,3.21-3.69,5.82Z" style="fill:#e0e0e0;"></path><path d="M18.23,302.04s-.08-.23-.12-.7c-.05-.47-.04-1.19,.27-2.07,.32-.86,.97-1.89,2.15-2.59,.58-.35,1.3-.57,2.07-.69,.38-.09,.78-.14,1.19-.18,.41-.06,.83-.08,1.27-.09,3.51-.15,7.78,.75,12.39,2.57,4.62,1.81,9.63,4.49,14.85,7.9,1.31,.85,2.63,1.75,3.96,2.69,.66,.48,1.33,.96,2.01,1.45,.33,.26,.68,.48,1.03,.69,.34,.24,.72,.38,1.1,.54,1.55,.63,3.32,.38,4.98-.09,1.68-.49,3.33-1.23,5.04-1.89,1.71-.67,3.51-1.27,5.4-1.59,1.9-.32,3.84-.32,5.79-.41,3.91-.11,7.94-.16,12.07-.19,16.52-.12,34.7-.04,53.82,.11h.08l.06,.04c.38,.27,.66,.62,.85,1.07,.18,.44,.2,.96,.06,1.42-.44,1.28-1.47,2.09-2.45,2.79l-.77,.5c-.26,.16-.58,.28-.86,.4l-.89,.23-.89,.15c-2.39,.34-4.76,.36-7.11,.38-4.7,0-9.32-.21-13.86-.46-9.08-.52-17.81-1.24-26.14-1.93-4.16-.34-8.22-.69-12.17-.94-1.97-.14-3.91-.12-5.83-.07-.95,.04-1.89,.11-2.81,.28-.91,.17-1.79,.45-2.64,.81-3.37,1.5-6.25,3.7-9.24,5.45-1.49,.88-3.01,1.66-4.56,2.29-1.56,.6-3.11,1.14-4.79,1.12h.03c-3.25,.18-6.34-.29-9.16-1.02-2.82-.74-5.4-1.72-7.73-2.8-4.67-2.15-8.38-4.61-11.23-6.82-2.85-2.22-4.82-4.25-5.94-5.8-.55-.77-.91-1.41-1.09-1.87-.18-.46-.21-.71-.21-.71,.02,0,.07,.24,.26,.69,.19,.45,.56,1.07,1.12,1.83,1.14,1.51,3.13,3.51,5.98,5.7,2.86,2.18,6.57,4.6,11.23,6.72,2.32,1.06,4.89,2.03,7.69,2.74,2.8,.71,5.86,1.16,9.06,.97h.03c1.5,0,3.1-.51,4.6-1.12,1.52-.62,3.02-1.4,4.5-2.27,2.96-1.75,5.83-3.96,9.27-5.5,.87-.37,1.78-.66,2.72-.85,.95-.17,1.91-.25,2.87-.29,1.92-.06,3.89-.08,5.87,.05,3.96,.24,8.02,.59,12.18,.92,8.33,.67,17.06,1.38,26.13,1.9,4.53,.24,9.15,.46,13.83,.45,2.34-.02,4.71-.05,7.03-.38l.87-.14,.84-.22c.26-.11,.51-.19,.76-.35l.74-.48c.94-.67,1.9-1.47,2.24-2.51,.24-.73-.13-1.52-.69-1.91l.14,.04c-19.11-.15-37.3-.25-53.81-.16-4.13,.02-8.15,.07-12.06,.17-1.95,.08-3.88,.08-5.73,.39-1.85,.31-3.62,.9-5.32,1.55-1.71,.65-3.36,1.39-5.08,1.89-1.7,.49-3.58,.74-5.24,.07-.41-.17-.82-.32-1.17-.57-.37-.23-.73-.46-1.06-.71-.67-.49-1.34-.97-2-1.45-1.33-.94-2.64-1.85-3.94-2.7-5.2-3.42-10.17-6.12-14.76-7.94-4.58-1.83-8.81-2.75-12.28-2.63-.43,0-.85,.03-1.26,.08-.41,.04-.8,.08-1.18,.16-.76,.11-1.45,.31-2.02,.65-1.16,.66-1.81,1.66-2.13,2.49-.32,.85-.34,1.56-.32,2.02,.03,.47,.09,.7,.07,.7Z" style="fill:#263238;"></path></g><path d="M59.29,313.83s.01,.05,.02,.14c0,.09,0,.23-.02,.4-.04,.35-.17,.87-.51,1.45-.35,.58-.9,1.22-1.71,1.74-.81,.53-1.87,.89-3.07,1.03-1.2,.14-2.52,.09-3.9-.06-1.39-.14-2.87-.33-4.41-.62-3.09-.58-6.44-1.48-9.79-2.88-3.35-1.41-6.37-3.14-8.89-5.03-2.52-1.89-4.52-3.92-6.04-5.75-.76-.91-1.37-1.86-1.6-2.81-.26-.95-.02-1.85,.35-2.41,.36-.59,.85-.88,1.19-.98,.35-.1,.54-.06,.54-.06,0,.03-.19,.03-.5,.16-.31,.13-.74,.42-1.05,.98-.32,.55-.51,1.36-.24,2.24,.24,.88,.84,1.76,1.6,2.65,1.53,1.78,3.54,3.76,6.04,5.6,2.5,1.84,5.49,3.54,8.8,4.93,3.31,1.38,6.63,2.29,9.68,2.89,1.53,.3,2.99,.5,4.37,.66,1.37,.16,2.66,.24,3.82,.12,2.35-.18,3.97-1.43,4.65-2.52,.7-1.11,.63-1.9,.69-1.88Z" style="fill:#263238;"></path></g></g><g id="freepik--Juice--inject-104"><g><path d="M300.38,79.65l22.35,183.91s19.02,14.04,50.96,12.99c31.95-1.05,41-18.61,41-18.61l18.18-178.3h-132.49Z" style="fill:#e0e0e0;"></path><path d="M307.23,86.72l19.82,169.9s24.51,11.55,45.36,10.65c24.78-1.07,37.79-12.83,37.79-12.83l15.95-167.73s-24.62,7.2-64.49,6.51c-35.71-.62-54.43-6.51-54.43-6.51Z" style="fill:#f5f5f5;"></path><path d="M311.03,119.27l16.02,137.35s12.95,11.92,45.36,10.65c27.07-1.06,37.79-12.83,37.79-12.83l12.85-135.18h-112.03Z" style="fill:#FF725E;"></path><ellipse cx="366.48" cy="78.84" rx="66.39" ry="10.15" style="fill:#e0e0e0;"></ellipse><path d="M430.04,78.84c0,4.55-28.4,7.51-63.42,8.24-32.64,.68-63.01-3.57-63.42-8.24-.39-4.53,28.39-8.24,63.42-8.24s63.42,3.69,63.42,8.24Z" style="fill:#f5f5f5;"></path><ellipse cx="367.22" cy="118.29" rx="55.93" ry="13.68" style="fill:#FF725E;"></ellipse><ellipse cx="367.22" cy="118.29" rx="55.93" ry="13.68" style="fill:#fff; opacity:.3;"></ellipse><path d="M375.86,260.02c-2.69-1.22-4.4-3.93-4.44-6.89l-1.5-92.7c.05-8.84,6.93-16.31,16.15-17.51h0c11.84-1.54,20.04,5.85,19.06,17.18l-5.7,91.48c-1.51,6.55-11.5,13.93-23.56,8.45Z" style="opacity:.2;"></path><path d="M361.24,260.54c3.88-.92,6.61-4.42,6.59-8.41l-.51-91.7c-.05-8.84-6.93-16.31-16.15-17.51h0c-11.84-1.54-22.19,5.42-21.21,16.75l7.85,91.9c1.48,5.31,11.83,11.71,23.42,8.97Z" style="fill:#fff; opacity:.2;"></path><path d="M407.9,155.95c1.8-17.09,13.27-18.29,13.27-18.29l-9.77,104.19c-2.21,11.26-9.77,12.98-9.89,8.97l6.39-94.88Z" style="opacity:.2;"></path><path d="M327.79,157.93c0-16.22-14.47-19.07-14.47-19.07,0,0,12.97,102.49,13.57,107.82,.73,6.52,8.79,8.94,8.52,4.53l-7.61-93.29Z" style="fill:#fff; opacity:.1;"></path><path d="M337.82,244.78c-1.43,.14-3.57-9.7-4.78-21.97-1.21-12.28-1.03-22.34,.4-22.48,1.43-.14,3.57,9.69,4.78,21.97,1.21,12.27,1.03,22.34-.4,22.48Z" style="fill:#fff;"></path><path d="M332.7,190.85c-1.43,.11-2.79-2.27-3.04-5.32-.24-3.05,.72-5.62,2.16-5.73,1.43-.11,2.79,2.27,3.03,5.32,.24,3.05-.72,5.62-2.16,5.73Z" style="fill:#fff;"></path><path d="M312.67,133.89s16.3,4.98,17.23,12.01c0,0,2.79-11.06,24.49-6.01l-1.67-52.82s-21.97-.21-48.19-6.56l8.15,53.37Z" style="fill:#fff; opacity:.2;"></path><path d="M318.23,84.47s4.83,47.35,11.68,47.5c6.85,.14,5.5-45.73,5.5-45.73l-17.17-1.77Z" style="fill:#fff; opacity:.4;"></path><path d="M432.87,78.84s0-.25-.19-.67c-.15-.44-.67-.95-1.4-1.47-1.5-1.03-4.05-1.99-7.4-2.85-6.71-1.73-16.68-3.13-29.05-4-12.37-.86-27.15-1.23-43.53-.65-8.19,.31-16.78,.84-25.63,1.89-4.42,.53-8.92,1.19-13.41,2.16-2.24,.49-4.49,1.06-6.68,1.82-1.08,.4-2.18,.82-3.17,1.4-.5,.29-.96,.62-1.37,1-.37,.4-.68,.86-.7,1.36,.01,.5,.32,.96,.69,1.37,.41,.38,.87,.71,1.37,1,.99,.58,2.08,1,3.17,1.4,2.19,.77,4.44,1.33,6.68,1.82,4.49,.97,8.99,1.62,13.41,2.16,8.85,1.06,17.45,1.59,25.64,1.9,16.38,.59,31.17,.21,43.53-.65,12.36-.87,22.33-2.27,29.05-4,3.35-.86,5.9-1.82,7.4-2.85,.73-.52,1.24-1.03,1.4-1.47,.18-.42,.16-.68,.19-.67-.01,0,.03,.25-.14,.69-.14,.46-.65,.99-1.39,1.53-1.5,1.07-4.05,2.07-7.41,2.96-6.72,1.79-16.7,3.25-29.07,4.17-12.38,.9-27.17,1.32-43.58,.76-8.2-.3-16.81-.82-25.68-1.87-4.44-.53-8.94-1.18-13.46-2.16-2.26-.49-4.52-1.06-6.75-1.84-1.1-.41-2.21-.83-3.25-1.44-.52-.31-1.02-.66-1.47-1.08-.42-.46-.82-1.02-.84-1.74,.02-.71,.43-1.27,.85-1.73,.46-.42,.96-.78,1.47-1.08,1.04-.61,2.15-1.03,3.25-1.44,2.22-.78,4.49-1.34,6.74-1.84,4.52-.97,9.02-1.62,13.46-2.16,8.87-1.05,17.48-1.57,25.68-1.87,16.4-.56,31.2-.15,43.57,.76,12.37,.92,22.35,2.38,29.07,4.17,3.35,.89,5.9,1.89,7.41,2.96,.73,.54,1.24,1.07,1.39,1.54,.17,.44,.13,.7,.14,.69Z" style="fill:#263238;"></path><path d="M425.93,88.99s-.01,.28-.05,.82c-.05,.55-.12,1.36-.21,2.41-.19,2.14-.48,5.27-.84,9.33-.76,8.14-1.85,19.96-3.23,34.73-2.79,29.56-6.69,70.92-11.15,118.18v.08l-.05,.05c-1.17,1.39-2.55,2.49-4.01,3.5-1.47,1-3,1.91-4.61,2.69-3.21,1.57-6.6,2.85-10.11,3.77-.87,.27-1.76,.45-2.64,.66-.89,.19-1.77,.44-2.67,.59-1.8,.3-3.6,.69-5.43,.88l-2.74,.35c-.92,.12-1.84,.16-2.76,.24l-2.77,.22c-.93,.05-1.86,.06-2.79,.09-7.72,.21-15.41-.41-22.71-2.22-3.66-.85-7.21-1.99-10.62-3.41-3.41-1.41-6.68-3.05-9.65-5.16l-.08-.06v-.11c-5.53-46.79-10.34-87.68-13.78-116.88-1.7-14.59-3.06-26.26-3.99-34.3-.46-4.01-.81-7.1-1.05-9.21-.11-1.04-.2-1.84-.26-2.38-.06-.54-.07-.81-.07-.81,0,0,.05,.27,.12,.81,.07,.55,.17,1.34,.3,2.38,.26,2.11,.64,5.2,1.13,9.2,.97,8.03,2.38,19.69,4.14,34.28,3.48,29.2,8.36,70.08,13.95,116.86l-.1-.17c2.89,2.06,6.17,3.69,9.54,5.09,3.38,1.4,6.91,2.53,10.55,3.38,7.25,1.79,14.89,2.41,22.57,2.2,7.4-.26,14.74-1.1,21.68-3.01,3.48-.91,6.84-2.18,10.01-3.73,1.59-.78,3.1-1.67,4.55-2.65,1.43-.99,2.81-2.1,3.89-3.39l-.05,.13c4.53-47.25,8.49-88.61,11.33-118.16,1.44-14.76,2.59-26.58,3.38-34.72,.4-4.05,.72-7.19,.93-9.32,.11-1.05,.19-1.86,.25-2.41,.06-.54,.1-.82,.1-.82Z" style="fill:#263238;"></path></g></g><g id="freepik--Orange--inject-104"><g><path d="M454.16,274.74c-3.03-5.03-3.74-12.85-1.69-18.35,2.05-5.5,6.71-9.97,12.3-11.79,1.22,3.8,2.3,7.68,2.57,11.66,.26,3.98-.35,8.11-2.35,11.56-2,3.45-6.86,6.5-10.83,6.93Z" style="fill:#455a64;"></path><path d="M462.04,252.66c-.12-.04-1.53,4.39-3.15,9.89-1.62,5.5-2.83,9.99-2.71,10.02,.12,.04,1.53-4.39,3.15-9.89,1.62-5.5,2.83-9.98,2.71-10.02Z" style="fill:#263238;"></path><path d="M453.24,272.08c8.34,.86,17.24-2.04,23.27-7.58,.41-.38,.85-.79,1.42-.87,1.02-.15,1.54,.9,2.08,1.67,.14,.2,.28,.4,.41,.6,.65,.94,.36,2.16-.63,2.75-8.13,4.86-16.81,6.97-25.5,5.47-.47-.08-.83-.46-.89-.93l-.16-1.09Z" style="fill:#263238;"></path><g><path d="M415.19,221.97l-13.16,78.13s5.55,.83,16.8-.6c4.65-.59,13.61-3.58,17.79-5.84,6.62-3.59,13.16-13.4,13.16-13.4,1-.55,4.58-1.42,6.12-5.75,1.45-4.09-3.06-8.44-3.06-8.44-.58-2.32-1.93-21.2-16.87-34.69-10.08-9.11-16.29-8.38-20.78-9.4Z" style="fill:#FF725E;"></path><g><g><path d="M417.8,222.16c8.67,1.88,22.94,16.68,20.08,42.4-2.45,22.07-21.11,39.33-40.43,34.9-19.33-4.42-23.38-24.42-19.17-45.4,4.21-20.98,19.31-36.28,39.52-31.9Z" style="fill:#FF725E;"></path><g style="opacity:.5;"><path d="M417.8,222.16c8.67,1.88,22.94,16.68,20.08,42.4-2.45,22.07-21.11,39.33-40.43,34.9-19.33-4.42-23.38-24.42-19.17-45.4,4.21-20.98,19.31-36.28,39.52-31.9Z" style="fill:#fff;"></path></g></g><g><path d="M405.29,266.17c-2.06,.78-2.28,11.25-2.58,14.97-.3,3.72-1.89,15.68,1.14,16.08,3.03,.4,10.1-3.82,12.19-5.2,2.09-1.38,5.43-4.29,5.61-6.99,.18-2.7-12.02-20.51-16.36-18.86Z" style="fill:#FF725E;"></path><path d="M408.37,261.44c-.61,2.56,5.26,7.02,7.25,8.52,2,1.5,7.1,6.3,10.32,4.99,3.22-1.31,5.33-7.04,6.02-12.76,.69-5.72,.84-12.45-2.25-12.07-3.79,.47-7.15,2.19-10.02,3.36-2.39,.98-10.69,5.32-11.33,7.97Z" style="fill:#FF725E;"></path><path d="M406.8,257.15c1.49,1.14,7.45-2.27,9.02-3.59,1.57-1.32,11.24-6.97,13.63-10.82,2.13-3.44-7.93-14.88-11.47-13.72-3.54,1.16-7,10.14-7.91,12.46-1.23,3.11-5.32,14.11-3.27,15.67Z" style="fill:#FF725E;"></path><path d="M402.66,255.93c1.61-.08,3.88-9.27,5.09-13.12,1.3-4.15,4.78-11.3,3.56-14.16-1.22-2.86-5.43-3.17-10.57-1.44-5.14,1.73-6.88,5.41-6.48,6.9,.4,1.49,1.81,7.69,2.6,9.52,1.26,2.97,3.69,12.41,5.81,12.31Z" style="fill:#FF725E;"></path><path d="M399.22,258.77c.65-1.13-2.16-9.78-3.37-12.24-1.21-2.45-3.78-11.17-5.92-10.84-2.14,.33-5.29,7.38-6.1,10.07-.81,2.69-2.28,7.17-1.62,8.72,.45,1.07,6.47,3.32,7.95,3.79,1.87,.6,8.29,1.85,9.06,.49Z" style="fill:#FF725E;"></path><path d="M400.5,266.58c-2.37-.71-8.11,7.81-9.22,9.07-1.11,1.26-5.41,6.24-5.95,9.53-.53,3.29,3.15,5.04,4.59,6.64,1.3,1.45,5.99,3.18,7.49,1.38,1.51-1.79,2.74-11.42,3.02-12.95,.28-1.53,2.46-12.96,.06-13.68Z" style="fill:#FF725E;"></path><path d="M398.11,262.59c.21,1.89-3.73,6.44-5.22,8.06-1.49,1.62-8.9,10.14-11.31,7.73-2.41-2.41-2.67-15.55-.63-17.57,2.04-2.02,16.96-.03,17.16,1.78Z" style="fill:#FF725E;"></path></g></g></g><path d="M449.81,278.24s.16-.19,.38-.57c.23-.38,.51-.95,.83-1.67,.63-1.44,1.31-3.53,1.66-5.91,.34-2.39,.27-4.58,.06-6.14-.1-.78-.22-1.41-.33-1.83-.11-.43-.18-.66-.21-.65-.07,.01,.1,.97,.21,2.52,.12,1.55,.14,3.7-.19,6.05-.34,2.34-.95,4.41-1.5,5.86-.55,1.45-.98,2.32-.91,2.36Z" style="fill:#263238;"></path></g></g></svg>
